<svg width="91" height="59" viewBox="0 0 91 59" fill="none" xmlns="http://www.w3.org/2000/svg">
<path d="M72.2558 35.6062C71.1455 41.4299 62.422 47.6506 55.6019 47.7829C55.1261 47.7829 54.6502 47.9153 54.333 48.18C54.0158 48.3123 53.6986 48.4447 53.54 48.8418C51.1609 52.5477 52.4297 55.4596 56.3949 57.842C60.9946 60.6214 68.2906 57.842 71.9385 55.3272C81.1378 48.9741 90.4957 37.9888 90.0199 27.5325C91.606 20.5174 91.2887 12.9734 88.9096 6.75266C87.3235 2.78199 82.7239 0.796658 77.9657 0.531944C73.2074 0.267017 63.3737 -0.923962 59.0913 1.45822C54.8089 3.84084 54.4916 8.47329 54.0158 12.4437C53.54 16.8115 52.1125 25.0177 56.5535 28.459C60.9946 31.7679 73.6832 28.1943 72.2558 35.6062Z" fill="#F9DBE3"/>
<path d="M19.915 35.6062C18.8048 41.4299 10.0816 47.6506 3.26118 47.7829C2.78535 47.7829 2.30953 47.9153 1.99231 48.18C1.67484 48.3123 1.35788 48.4447 1.19901 48.8418C-1.18011 52.5477 0.0887527 55.4596 4.05396 57.842C8.6536 60.6214 15.9496 57.842 19.5978 55.3272C28.7971 48.9741 38.155 37.9886 37.6792 27.5325C39.2652 20.5174 38.948 12.9734 36.5692 6.75266C34.9831 2.78199 30.3834 0.796658 25.6249 0.531944C20.8667 0.267017 11.033 -0.923962 6.75056 1.45822C2.4684 3.84084 2.15092 8.47329 1.6751 12.4437C1.19927 16.8115 -0.228203 25.0177 4.21283 28.459C8.65386 31.7679 21.5011 28.1943 19.915 35.6062Z" fill="#F9DBE3"/>
</svg>
