<svg xmlns="http://www.w3.org/2000/svg" xmlns:xlink="http://www.w3.org/1999/xlink" width="300" zoomAndPan="magnify" viewBox="0 0 224.87999 225" height="300" preserveAspectRatio="xMidYMid meet" version="1.0"><defs><clipPath id="8291c2b83e"><path d="M 37.59375 70.824219 L 138.53125 70.824219 L 138.53125 127.144531 L 37.59375 127.144531 Z M 37.59375 70.824219 " clip-rule="nonzero"/></clipPath><clipPath id="d97c314410"><path d="M 0.429688 86.125 L 224.761719 86.125 L 224.761719 148.449219 L 0.429688 148.449219 Z M 0.429688 86.125 " clip-rule="nonzero"/></clipPath><clipPath id="5306dc28c4"><path d="M 0.429688 115.414062 L 224.761719 115.414062 L 224.761719 152.925781 L 0.429688 152.925781 Z M 0.429688 115.414062 " clip-rule="nonzero"/></clipPath><clipPath id="8a1115ee8c"><path d="M 0.429688 111.492188 L 89.777344 111.492188 L 89.777344 149.566406 L 0.429688 149.566406 Z M 0.429688 111.492188 " clip-rule="nonzero"/></clipPath><clipPath id="f9687bf9a1"><path d="M 0.429688 126.613281 L 47.203125 126.613281 L 47.203125 146.769531 L 0.429688 146.769531 Z M 0.429688 126.613281 " clip-rule="nonzero"/></clipPath><clipPath id="bf3cf23dc8"><path d="M 164 138 L 207 138 L 207 168.042969 L 164 168.042969 Z M 164 138 " clip-rule="nonzero"/></clipPath><clipPath id="56bb1a8998"><path d="M 0.429688 116 L 224.761719 116 L 224.761719 152.925781 L 0.429688 152.925781 Z M 0.429688 116 " clip-rule="nonzero"/></clipPath></defs><g clip-path="url(#8291c2b83e)"><path fill="#ff6584" d="M 138.53125 121.292969 C 138.53125 122.945312 138.449219 124.59375 138.289062 126.238281 C 138.125 127.882812 137.882812 129.515625 137.558594 131.136719 C 137.238281 132.757812 136.835938 134.359375 136.355469 135.941406 C 135.878906 137.523438 135.320312 139.078125 134.6875 140.605469 C 134.054688 142.132812 133.351562 143.625 132.570312 145.082031 C 131.792969 146.539062 130.941406 147.957031 130.023438 149.332031 C 129.105469 150.703125 128.121094 152.03125 127.074219 153.308594 C 126.027344 154.585938 124.917969 155.808594 123.75 156.976562 C 122.578125 158.148438 121.355469 159.253906 120.078125 160.304688 C 118.800781 161.351562 117.476562 162.335938 116.101562 163.253906 C 114.726562 164.171875 113.308594 165.019531 111.851562 165.800781 C 110.394531 166.578125 108.902344 167.285156 107.375 167.917969 C 105.847656 168.550781 104.292969 169.105469 102.710938 169.585938 C 101.128906 170.066406 99.527344 170.46875 97.90625 170.789062 C 96.285156 171.113281 94.652344 171.355469 93.007812 171.515625 C 91.363281 171.679688 89.714844 171.757812 88.0625 171.757812 C 86.410156 171.757812 84.761719 171.679688 83.117188 171.515625 C 81.46875 171.355469 79.835938 171.113281 78.214844 170.789062 C 76.59375 170.46875 74.992188 170.066406 73.410156 169.585938 C 71.832031 169.105469 70.277344 168.550781 68.75 167.917969 C 67.222656 167.285156 65.730469 166.578125 64.269531 165.800781 C 62.8125 165.019531 61.398438 164.171875 60.023438 163.253906 C 58.648438 162.335938 57.324219 161.351562 56.046875 160.304688 C 54.769531 159.253906 53.542969 158.148438 52.375 156.976562 C 51.207031 155.808594 50.097656 154.585938 49.050781 153.308594 C 48 152.03125 47.015625 150.703125 46.097656 149.332031 C 45.179688 147.957031 44.332031 146.539062 43.554688 145.082031 C 42.773438 143.625 42.066406 142.132812 41.433594 140.605469 C 40.804688 139.078125 40.246094 137.523438 39.765625 135.941406 C 39.289062 134.359375 38.886719 132.757812 38.5625 131.136719 C 38.242188 129.515625 38 127.882812 37.835938 126.238281 C 37.675781 124.59375 37.59375 122.945312 37.59375 121.292969 C 37.59375 119.640625 37.675781 117.988281 37.835938 116.34375 C 38 114.699219 38.242188 113.066406 38.5625 111.445312 C 38.886719 109.824219 39.289062 108.222656 39.765625 106.640625 C 40.246094 105.058594 40.804688 103.503906 41.433594 101.976562 C 42.066406 100.453125 42.773438 98.957031 43.554688 97.5 C 44.332031 96.042969 45.179688 94.628906 46.097656 93.253906 C 47.015625 91.878906 48 90.550781 49.050781 89.273438 C 50.097656 87.996094 51.207031 86.773438 52.375 85.605469 C 53.542969 84.4375 54.769531 83.328125 56.046875 82.277344 C 57.324219 81.230469 58.648438 80.246094 60.023438 79.328125 C 61.398438 78.410156 62.8125 77.5625 64.269531 76.78125 C 65.730469 76.003906 67.222656 75.296875 68.75 74.664062 C 70.277344 74.03125 71.832031 73.476562 73.410156 72.996094 C 74.992188 72.515625 76.59375 72.117188 78.214844 71.792969 C 79.835938 71.472656 81.46875 71.226562 83.117188 71.066406 C 84.761719 70.90625 86.410156 70.824219 88.0625 70.824219 C 89.714844 70.824219 91.363281 70.90625 93.007812 71.066406 C 94.652344 71.226562 96.285156 71.472656 97.90625 71.792969 C 99.527344 72.117188 101.128906 72.515625 102.710938 72.996094 C 104.292969 73.476562 105.847656 74.03125 107.375 74.664062 C 108.902344 75.296875 110.394531 76.003906 111.851562 76.78125 C 113.308594 77.5625 114.726562 78.410156 116.101562 79.328125 C 117.476562 80.246094 118.800781 81.230469 120.078125 82.277344 C 121.355469 83.328125 122.578125 84.4375 123.75 85.605469 C 124.917969 86.773438 126.027344 87.996094 127.074219 89.273438 C 128.121094 90.550781 129.105469 91.878906 130.023438 93.253906 C 130.941406 94.628906 131.792969 96.042969 132.570312 97.5 C 133.351562 98.957031 134.054688 100.453125 134.6875 101.976562 C 135.320312 103.503906 135.878906 105.058594 136.355469 106.640625 C 136.835938 108.222656 137.238281 109.824219 137.558594 111.445312 C 137.882812 113.066406 138.125 114.699219 138.289062 116.34375 C 138.449219 117.988281 138.53125 119.640625 138.53125 121.292969 Z M 138.53125 121.292969 " fill-opacity="1" fill-rule="nonzero"/></g><g clip-path="url(#d97c314410)"><path fill="#6c63ff" d="M 50.117188 148.265625 C 87.480469 148.265625 119.074219 107.730469 131.957031 111.425781 C 138.09375 113.164062 141.167969 110.839844 143.890625 108.519531 C 147.648438 105.308594 150.71875 102.09375 160.246094 109.636719 C 169.265625 116.773438 174.601562 107.976562 180.6875 99.1875 C 185.679688 91.980469 191.175781 84.777344 199.628906 86.335938 C 218.394531 89.816406 224.777344 126.878906 224.777344 126.878906 L 0.429688 126.878906 C 0.429688 126.878906 24.070312 148.265625 50.117188 148.265625 " fill-opacity="1" fill-rule="nonzero"/></g><g clip-path="url(#5306dc28c4)"><path fill="#ff6584" d="M 8.273438 132.140625 C 25.863281 143.957031 49.277344 142.21875 64.90625 127.941406 C 65.296875 127.550781 65.746094 127.210938 66.140625 126.878906 L 0.429688 126.878906 L 8.273438 132.140625 M 138.289062 139.195312 C 153.523438 154.367188 177.222656 157 195.371094 145.523438 L 224.777344 126.878906 L 125.683594 126.878906 C 126.582031 127.660156 127.535156 128.5 128.375 129.339844 L 138.289062 139.195312 M 66.140625 126.878906 L 125.683594 126.878906 C 108.65625 112.375 83.390625 112.265625 66.140625 126.878906 " fill-opacity="1" fill-rule="nonzero"/></g><g clip-path="url(#8a1115ee8c)"><path fill="#6c63ff" d="M 78.878906 111.988281 C 82.328125 111.988281 85.890625 113.25 89.554688 116.242188 L 89.722656 116.378906 C 81.269531 117.523438 73.0625 121.015625 66.140625 126.878906 L 56.671875 126.878906 C 63.378906 118.882812 70.820312 111.980469 78.878906 111.988281 M 0.429688 126.878906 C 0.429688 126.878906 16.855469 141.738281 37.40625 146.683594 C 34.148438 148.660156 30.984375 149.484375 27.957031 149.484375 C 12.183594 149.484375 0.429688 126.878906 0.429688 126.878906 " fill-opacity="1" fill-rule="nonzero"/></g><g clip-path="url(#f9687bf9a1)"><path fill="#6c63ff" d="M 0.429688 126.878906 L 8.273438 132.140625 C 16.070312 137.375 25.011719 139.953125 33.914062 139.953125 C 38.375 139.953125 42.835938 139.304688 47.132812 138.015625 C 44.066406 141.363281 41.058594 144.28125 38.355469 146.082031 C 38.039062 146.292969 37.722656 146.496094 37.40625 146.683594 C 16.855469 141.738281 0.429688 126.878906 0.429688 126.878906 " fill-opacity="1" fill-rule="nonzero"/></g><path fill="#6c63ff" d="M 102.515625 126.878906 L 125.683594 126.878906 C 126.582031 127.660156 127.535156 128.5 128.375 129.339844 L 138.289062 139.195312 C 140.539062 141.441406 142.976562 143.410156 145.554688 145.097656 C 145.527344 145.109375 145.492188 145.121094 145.457031 145.128906 C 141.835938 146.308594 138.5 146.84375 135.375 146.84375 C 122.625 146.84375 113.355469 137.914062 101.957031 127.265625 C 102.140625 127.136719 102.332031 127.007812 102.515625 126.878906 " fill-opacity="1" fill-rule="nonzero"/><path fill="#6c63ff" d="M 101.542969 126.878906 L 102.515625 126.878906 C 102.332031 127.007812 102.140625 127.136719 101.957031 127.265625 C 101.816406 127.136719 101.679688 127.007812 101.542969 126.878906 " fill-opacity="1" fill-rule="nonzero"/><g clip-path="url(#bf3cf23dc8)"><path fill="#6c63ff" d="M 206.265625 138.613281 C 198.578125 150.183594 194.210938 166.351562 182.207031 167.917969 C 181.535156 168.003906 180.898438 168.046875 180.289062 168.046875 C 172.90625 168.046875 169.675781 162.03125 166.351562 156.011719 C 165.628906 154.707031 164.90625 153.394531 164.128906 152.144531 C 166.347656 152.472656 168.582031 152.632812 170.824219 152.632812 C 179.292969 152.632812 187.8125 150.300781 195.371094 145.523438 L 206.265625 138.613281 " fill-opacity="1" fill-rule="nonzero"/></g><g clip-path="url(#56bb1a8998)"><path fill="#cb6ce6" d="M 89.722656 116.378906 C 94.023438 119.917969 97.890625 123.503906 101.542969 126.878906 L 66.140625 126.878906 C 73.0625 121.015625 81.269531 117.523438 89.722656 116.378906 M 0.429688 126.878906 L 56.671875 126.878906 C 53.628906 130.523438 50.351562 134.503906 47.132812 138.015625 C 42.835938 139.304688 38.375 139.953125 33.914062 139.953125 C 25.011719 139.953125 16.070312 137.375 8.273438 132.140625 L 0.429688 126.878906 M 101.542969 126.878906 L 125.683594 126.878906 L 101.542969 126.878906 M 125.683594 126.878906 L 224.777344 126.878906 C 216.152344 126.878906 210.664062 131.992188 206.265625 138.613281 L 195.371094 145.523438 C 187.8125 150.300781 179.292969 152.632812 170.824219 152.632812 C 168.582031 152.632812 166.347656 152.472656 164.128906 152.144531 C 161.351562 147.664062 157.949219 143.980469 151.90625 143.980469 C 150.058594 143.980469 147.957031 144.328125 145.554688 145.097656 C 142.976562 143.410156 140.539062 141.441406 138.289062 139.195312 L 128.375 129.339844 C 127.535156 128.5 126.582031 127.660156 125.683594 126.878906 " fill-opacity="1" fill-rule="nonzero"/></g></svg>