<svg width="389" height="136" viewBox="0 0 389 136" fill="none" xmlns="http://www.w3.org/2000/svg">
<g clip-path="url(#clip0_103_74)">
<path d="M85.0461 73.6757C85.0461 74.6671 84.9961 75.6561 84.8985 76.6428C84.7985 77.6296 84.6509 78.6093 84.4533 79.5819C84.258 80.5546 84.0128 81.5155 83.7199 82.4647C83.4295 83.4139 83.089 84.3468 82.7033 85.2632C82.3176 86.1796 81.889 87.0749 81.4128 87.9491C80.939 88.8233 80.4199 89.6741 79.8604 90.4991C79.3009 91.3218 78.7009 92.1186 78.0628 92.885C77.4247 93.6514 76.7485 94.385 76.0366 95.0858C75.3223 95.7889 74.5771 96.4522 73.7985 97.0827C73.0199 97.7108 72.2128 98.3014 71.3747 98.8522C70.5366 99.403 69.6723 99.9116 68.7842 100.38C67.8961 100.847 66.9866 101.271 66.0556 101.651C65.1247 102.03 64.1771 102.363 63.2128 102.651C62.2485 102.94 61.2723 103.181 60.2842 103.373C59.2961 103.568 58.3009 103.713 57.2985 103.809C56.2961 103.908 55.2914 103.955 54.2842 103.955C53.2771 103.955 52.2723 103.908 51.2699 103.809C50.2652 103.713 49.2699 103.568 48.2818 103.373C47.2937 103.181 46.3175 102.94 45.3533 102.651C44.3914 102.363 43.4437 102.03 42.5128 101.651C41.5818 101.271 40.6723 100.847 39.7818 100.38C38.8937 99.9116 38.0318 99.403 37.1937 98.8522C36.3556 98.3014 35.5485 97.7108 34.7699 97.0827C33.9914 96.4522 33.2437 95.7889 32.5318 95.0858C31.8199 94.385 31.1437 93.6514 30.5056 92.885C29.8652 92.1186 29.2652 91.3218 28.7056 90.4991C28.1461 89.6741 27.6295 88.8233 27.1556 87.9491C26.6795 87.0749 26.2485 86.1796 25.8628 85.2632C25.4795 84.3468 25.139 83.4139 24.8461 82.4647C24.5556 81.5155 24.3104 80.5546 24.1128 79.5819C23.9175 78.6093 23.7699 77.6296 23.6699 76.6428C23.5723 75.6561 23.5223 74.6671 23.5223 73.6757C23.5223 72.6843 23.5723 71.6928 23.6699 70.7061C23.7699 69.7194 23.9175 68.7397 24.1128 67.7671C24.3104 66.7944 24.5556 65.8335 24.8461 64.8843C25.139 63.935 25.4795 63.0022 25.8628 62.0858C26.2485 61.1718 26.6795 60.2741 27.1556 59.3999C27.6295 58.5257 28.1461 57.6772 28.7056 56.8522C29.2652 56.0272 29.8652 55.2303 30.5056 54.4639C31.1437 53.6975 31.8199 52.9639 32.5318 52.2632C33.2437 51.5624 33.9914 50.8968 34.7699 50.2663C35.5485 49.6382 36.3556 49.0475 37.1937 48.4968C38.0318 47.946 38.8937 47.4374 39.7818 46.9686C40.6723 46.5022 41.5818 46.078 42.5128 45.6983C43.4437 45.3186 44.3914 44.9858 45.3533 44.6975C46.3175 44.4093 47.2937 44.1702 48.2818 43.9757C49.2699 43.7835 50.2652 43.6358 51.2699 43.5397C52.2723 43.4436 53.2771 43.3944 54.2842 43.3944C55.2914 43.3944 56.2961 43.4436 57.2985 43.5397C58.3009 43.6358 59.2961 43.7835 60.2842 43.9757C61.2723 44.1702 62.2485 44.4093 63.2128 44.6975C64.1771 44.9858 65.1247 45.3186 66.0556 45.6983C66.9866 46.078 67.8961 46.5022 68.7842 46.9686C69.6723 47.4374 70.5366 47.946 71.3747 48.4968C72.2128 49.0475 73.0199 49.6382 73.7985 50.2663C74.5771 50.8968 75.3223 51.5624 76.0366 52.2632C76.7485 52.9639 77.4247 53.6975 78.0628 54.4639C78.7009 55.2303 79.3009 56.0272 79.8604 56.8522C80.4199 57.6772 80.939 58.5257 81.4128 59.3999C81.889 60.2741 82.3176 61.1718 82.7033 62.0858C83.089 63.0022 83.4295 63.935 83.7199 64.8843C84.0128 65.8335 84.258 66.7944 84.4533 67.7671C84.6509 68.7397 84.7985 69.7194 84.8985 70.7061C84.9961 71.6928 85.0461 72.6843 85.0461 73.6757Z" fill="#FF6584"/>
<path d="M31.1556 89.8593C53.9294 89.8593 73.1866 65.5382 81.039 67.7554C84.7794 68.7984 86.6532 67.4038 88.3128 66.0116C90.6032 64.0851 92.4747 62.1562 98.2818 66.682C103.779 70.964 107.032 65.6859 110.741 60.4124C113.784 56.0882 117.134 51.7663 122.287 52.7015C133.725 54.7898 137.615 77.0273 137.615 77.0273H0.869919C0.869919 77.0273 15.2794 89.8593 31.1556 89.8593Z" fill="#6C63FF"/>
<path d="M5.65087 80.1843C16.3723 87.2741 30.6437 86.2311 40.1699 77.6647C40.408 77.4303 40.6818 77.2264 40.9223 77.0272H0.869919L5.65087 80.1843ZM84.8985 84.4171C94.1842 93.5202 108.629 95.0999 119.691 88.2139L137.615 77.0272H77.2151C77.7628 77.496 78.3437 77.9999 78.8556 78.5038L84.8985 84.4171ZM40.9223 77.0272H77.2151C66.8366 68.3249 51.4366 68.2593 40.9223 77.0272Z" fill="#FF6584"/>
<path d="M48.6866 68.0929C50.789 68.0929 52.9604 68.8499 55.1937 70.6452L55.2961 70.7273C50.1437 71.414 45.1413 73.5093 40.9223 77.0273H35.1509C39.239 72.2296 43.7747 68.0882 48.6866 68.0929ZM0.869919 77.0273C0.869919 77.0273 10.8818 85.9429 23.408 88.9101C21.4223 90.096 19.4937 90.5906 17.6485 90.5906C8.03421 90.5906 0.869919 77.0273 0.869919 77.0273Z" fill="#6C63FF"/>
<path d="M0.869919 77.0272L5.65087 80.1843C10.4033 83.3249 15.8533 84.8718 21.2794 84.8718C23.9985 84.8718 26.7175 84.4827 29.3366 83.7093C27.4675 85.7178 25.6342 87.4686 23.9866 88.5491C23.7937 88.6757 23.6009 88.7975 23.408 88.91C10.8818 85.9428 0.869919 77.0272 0.869919 77.0272Z" fill="#6C63FF"/>
<path d="M63.0937 77.0272H77.2152C77.7628 77.496 78.3437 77.9999 78.8556 78.5038L84.8985 84.4171C86.2699 85.7647 87.7556 86.946 89.3271 87.9585C89.3104 87.9655 89.289 87.9725 89.2675 87.9772C87.0604 88.685 85.0271 89.0061 83.1223 89.0061C75.3509 89.0061 69.7009 83.6483 62.7533 77.2593C62.8652 77.1819 62.9818 77.1046 63.0937 77.0272Z" fill="#6C63FF"/>
<path d="M62.5009 77.0272H63.0937C62.9818 77.1046 62.8652 77.1819 62.7533 77.2593C62.6675 77.1819 62.5842 77.1046 62.5009 77.0272Z" fill="#6C63FF"/>
<path d="M126.332 84.0679C121.646 91.0101 118.984 100.711 111.668 101.651C111.258 101.702 110.87 101.728 110.498 101.728C105.998 101.728 104.029 98.1187 102.003 94.5069C101.563 93.7241 101.122 92.9366 100.648 92.1866C102.001 92.3835 103.363 92.4796 104.729 92.4796C109.891 92.4796 115.084 91.0804 119.691 88.214L126.332 84.0679Z" fill="#6C63FF"/>
<path d="M55.2961 70.7273C57.9175 72.8507 60.2747 75.0023 62.5009 77.0273H40.9223C45.1413 73.5093 50.1437 71.414 55.2961 70.7273ZM0.869919 77.0273H35.1509C33.2961 79.214 31.2985 81.6023 29.3366 83.7093C26.7175 84.4828 23.9985 84.8718 21.2794 84.8718C15.8533 84.8718 10.4033 83.325 5.65087 80.1843L0.869919 77.0273ZM62.5009 77.0273H77.2151H62.5009ZM77.2151 77.0273H137.615C132.358 77.0273 129.013 80.0953 126.332 84.0679L119.691 88.214C115.084 91.0804 109.891 92.4796 104.729 92.4796C103.363 92.4796 102.001 92.3835 100.648 92.1867C98.9556 89.4984 96.8818 87.2882 93.1985 87.2882C92.0723 87.2882 90.7913 87.4968 89.3271 87.9585C87.7556 86.946 86.2699 85.7648 84.8985 84.4171L78.8556 78.5039C78.3437 78 77.7628 77.496 77.2151 77.0273Z" fill="#CB6CE6"/>
</g>
<path d="M168.6 70.888C170.648 70.888 172.269 71.5813 173.464 72.968C174.68 74.3333 175.288 76.1893 175.288 78.536V89H169.016V79.368C169.016 78.344 168.749 77.544 168.216 76.968C167.683 76.3707 166.968 76.072 166.072 76.072C165.133 76.072 164.397 76.3707 163.864 76.968C163.331 77.544 163.064 78.344 163.064 79.368V89H156.792V65.32H163.064V73.608C163.619 72.7973 164.365 72.1467 165.304 71.656C166.264 71.144 167.363 70.888 168.6 70.888ZM195.882 79.816C195.882 80.3067 195.85 80.7973 195.786 81.288H183.914C183.978 82.2693 184.244 83.0053 184.714 83.496C185.204 83.9653 185.823 84.2 186.57 84.2C187.615 84.2 188.362 83.7307 188.81 82.792H195.498C195.22 84.0293 194.676 85.1387 193.866 86.12C193.076 87.08 192.074 87.8373 190.858 88.392C189.642 88.9467 188.298 89.224 186.826 89.224C185.055 89.224 183.476 88.8507 182.09 88.104C180.724 87.3573 179.647 86.2907 178.858 84.904C178.09 83.5173 177.706 81.8853 177.706 80.008C177.706 78.1307 178.09 76.5093 178.858 75.144C179.626 73.7573 180.692 72.6907 182.058 71.944C183.444 71.1973 185.034 70.824 186.826 70.824C188.596 70.824 190.164 71.1867 191.53 71.912C192.895 72.6373 193.962 73.6827 194.73 75.048C195.498 76.392 195.882 77.9813 195.882 79.816ZM189.482 78.248C189.482 77.48 189.226 76.8827 188.714 76.456C188.202 76.008 187.562 75.784 186.794 75.784C186.026 75.784 185.396 75.9973 184.906 76.424C184.415 76.8293 184.095 77.4373 183.946 78.248H189.482ZM197.424 80.008C197.424 78.152 197.755 76.5307 198.416 75.144C199.099 73.7573 200.016 72.6907 201.168 71.944C202.342 71.1973 203.643 70.824 205.072 70.824C206.31 70.824 207.376 71.0693 208.272 71.56C209.168 72.0507 209.862 72.712 210.352 73.544V71.048H216.624V89H210.352V86.504C209.862 87.336 209.158 87.9973 208.24 88.488C207.344 88.9787 206.288 89.224 205.072 89.224C203.643 89.224 202.342 88.8507 201.168 88.104C200.016 87.3573 199.099 86.2907 198.416 84.904C197.755 83.496 197.424 81.864 197.424 80.008ZM210.352 80.008C210.352 78.856 210.032 77.9493 209.392 77.288C208.774 76.6267 208.006 76.296 207.088 76.296C206.15 76.296 205.371 76.6267 204.752 77.288C204.134 77.928 203.824 78.8347 203.824 80.008C203.824 81.16 204.134 82.0773 204.752 82.76C205.371 83.4213 206.15 83.752 207.088 83.752C208.006 83.752 208.774 83.4213 209.392 82.76C210.032 82.0987 210.352 81.1813 210.352 80.008ZM226.47 74.216C227.174 73.192 228.028 72.3813 229.03 71.784C230.033 71.1867 231.11 70.888 232.262 70.888V77.576H230.502C229.137 77.576 228.124 77.8427 227.462 78.376C226.801 78.9093 226.47 79.8373 226.47 81.16V89H220.198V71.048H226.47V74.216ZM233.487 80.008C233.487 78.152 233.817 76.5307 234.479 75.144C235.161 73.7573 236.089 72.6907 237.263 71.944C238.436 71.1973 239.737 70.824 241.167 70.824C242.319 70.824 243.343 71.0693 244.239 71.56C245.156 72.0293 245.871 72.68 246.383 73.512V65.32H252.687V89H246.383V86.504C245.892 87.336 245.199 87.9973 244.303 88.488C243.407 88.9787 242.351 89.224 241.135 89.224C239.705 89.224 238.404 88.8507 237.231 88.104C236.079 87.3573 235.161 86.2907 234.479 84.904C233.817 83.496 233.487 81.864 233.487 80.008ZM246.415 80.008C246.415 78.856 246.095 77.9493 245.455 77.288C244.836 76.6267 244.068 76.296 243.151 76.296C242.212 76.296 241.433 76.6267 240.815 77.288C240.196 77.928 239.887 78.8347 239.887 80.008C239.887 81.16 240.196 82.0773 240.815 82.76C241.433 83.4213 242.212 83.752 243.151 83.752C244.068 83.752 244.836 83.4213 245.455 82.76C246.095 82.0987 246.415 81.1813 246.415 80.008ZM265.957 76.264H263.141V89H256.837V76.264H254.885V71.048H256.837V70.888C256.837 68.584 257.509 66.824 258.853 65.608C260.218 64.3707 262.17 63.752 264.709 63.752C265.221 63.752 265.615 63.7627 265.893 63.784V69.128C265.722 69.1067 265.487 69.096 265.189 69.096C264.506 69.096 264.005 69.256 263.685 69.576C263.365 69.8747 263.183 70.3653 263.141 71.048H265.957V76.264ZM274.47 74.216C275.174 73.192 276.028 72.3813 277.03 71.784C278.033 71.1867 279.11 70.888 280.262 70.888V77.576H278.502C277.137 77.576 276.124 77.8427 275.462 78.376C274.801 78.9093 274.47 79.8373 274.47 81.16V89H268.198V71.048H274.47V74.216ZM290.863 89.224C289.071 89.224 287.46 88.8507 286.031 88.104C284.623 87.3573 283.513 86.2907 282.703 84.904C281.892 83.5173 281.487 81.8853 281.487 80.008C281.487 78.152 281.892 76.5307 282.703 75.144C283.535 73.7573 284.655 72.6907 286.063 71.944C287.492 71.1973 289.103 70.824 290.895 70.824C292.687 70.824 294.287 71.1973 295.695 71.944C297.124 72.6907 298.244 73.7573 299.055 75.144C299.887 76.5307 300.303 78.152 300.303 80.008C300.303 81.864 299.887 83.496 299.055 84.904C298.244 86.2907 297.124 87.3573 295.695 88.104C294.265 88.8507 292.655 89.224 290.863 89.224ZM290.863 83.784C291.737 83.784 292.463 83.464 293.039 82.824C293.636 82.1627 293.935 81.224 293.935 80.008C293.935 78.792 293.636 77.864 293.039 77.224C292.463 76.584 291.748 76.264 290.895 76.264C290.041 76.264 289.327 76.584 288.751 77.224C288.175 77.864 287.887 78.792 287.887 80.008C287.887 81.2453 288.164 82.184 288.719 82.824C289.273 83.464 289.988 83.784 290.863 83.784ZM326.311 70.888C328.572 70.888 330.343 71.5707 331.623 72.936C332.924 74.3013 333.575 76.168 333.575 78.536V89H327.303V79.368C327.303 78.408 327.036 77.6613 326.503 77.128C325.969 76.5947 325.244 76.328 324.327 76.328C323.409 76.328 322.684 76.5947 322.151 77.128C321.617 77.6613 321.351 78.408 321.351 79.368V89H315.079V79.368C315.079 78.408 314.812 77.6613 314.279 77.128C313.767 76.5947 313.052 76.328 312.135 76.328C311.196 76.328 310.46 76.5947 309.927 77.128C309.393 77.6613 309.127 78.408 309.127 79.368V89H302.855V71.048H309.127V73.416C309.681 72.648 310.396 72.04 311.271 71.592C312.167 71.1227 313.191 70.888 314.343 70.888C315.665 70.888 316.839 71.176 317.863 71.752C318.908 72.328 319.729 73.1387 320.327 74.184C320.967 73.2027 321.809 72.4133 322.855 71.816C323.9 71.1973 325.052 70.888 326.311 70.888Z" fill="white"/>
<defs>
<clipPath id="clip0_103_74">
<rect width="137.143" height="135" fill="white" transform="translate(0.571442 0.899902)"/>
</clipPath>
</defs>
</svg>
