<svg width="328" height="100" viewBox="0 0 328 100" fill="none" xmlns="http://www.w3.org/2000/svg">
<path d="M61.5961 53.908C61.5961 54.6424 61.5597 55.375 61.4885 56.1059C61.4156 56.8368 61.3079 57.5625 61.1638 58.283C61.0215 59.0035 60.8426 59.7153 60.6291 60.4184C60.4173 61.1215 60.169 61.8125 59.8878 62.4913C59.6065 63.1701 59.294 63.8333 58.9468 64.4809C58.6013 65.1285 58.2229 65.7587 57.8149 66.3698C57.4069 66.9792 56.9694 67.5694 56.5041 68.1372C56.0388 68.7049 55.5458 69.2483 55.0267 69.7674C54.5058 70.2882 53.9624 70.7795 53.3947 71.2465C52.827 71.7118 52.2385 72.1493 51.6274 72.5573C51.0163 72.9653 50.386 73.342 49.7385 73.6892C49.0909 74.0347 48.4277 74.349 47.7489 74.6302C47.0701 74.9115 46.3791 75.158 45.676 75.3715C44.9728 75.5851 44.261 75.7639 43.5406 75.9063C42.8201 76.0504 42.0944 76.158 41.3635 76.2292C40.6326 76.3021 39.8999 76.3368 39.1656 76.3368C38.4312 76.3368 37.6985 76.3021 36.9676 76.2292C36.235 76.158 35.5093 76.0504 34.7888 75.9063C34.0683 75.7639 33.3565 75.5851 32.6534 75.3715C31.952 75.158 31.261 74.9115 30.5822 74.6302C29.9034 74.349 29.2402 74.0347 28.5909 73.6892C27.9433 73.342 27.3149 72.9653 26.7038 72.5573C26.0926 72.1493 25.5041 71.7118 24.9364 71.2465C24.3687 70.7795 23.8235 70.2882 23.3044 69.7674C22.7853 69.2483 22.2923 68.7049 21.827 68.1372C21.36 67.5694 20.9225 66.9792 20.5145 66.3698C20.1065 65.7587 19.7298 65.1285 19.3843 64.4809C19.0371 63.8333 18.7228 63.1701 18.4416 62.4913C18.1621 61.8125 17.9138 61.1215 17.7003 60.4184C17.4885 59.7153 17.3097 59.0035 17.1656 58.283C17.0232 57.5625 16.9156 56.8368 16.8426 56.1059C16.7715 55.375 16.735 54.6424 16.735 53.908C16.735 53.1736 16.7715 52.4392 16.8426 51.7083C16.9156 50.9774 17.0232 50.2517 17.1656 49.5313C17.3097 48.8108 17.4885 48.099 17.7003 47.3958C17.9138 46.6927 18.1621 46.0017 18.4416 45.3229C18.7228 44.6458 19.0371 43.9809 19.3843 43.3333C19.7298 42.6858 20.1065 42.0573 20.5145 41.4462C20.9225 40.8351 21.36 40.2448 21.827 39.6771C22.2923 39.1094 22.7853 38.566 23.3044 38.0469C23.8235 37.5278 24.3687 37.0347 24.9364 36.5677C25.5041 36.1024 26.0926 35.6649 26.7038 35.2569C27.3149 34.849 27.9433 34.4722 28.5909 34.125C29.2402 33.7795 29.9034 33.4653 30.5822 33.184C31.261 32.9028 31.952 32.6563 32.6534 32.4427C33.3565 32.2292 34.0683 32.0521 34.7888 31.908C35.5093 31.7656 36.235 31.6563 36.9676 31.5851C37.6985 31.5139 38.4312 31.4774 39.1656 31.4774C39.8999 31.4774 40.6326 31.5139 41.3635 31.5851C42.0944 31.6563 42.8201 31.7656 43.5406 31.908C44.261 32.0521 44.9728 32.2292 45.676 32.4427C46.3791 32.6563 47.0701 32.9028 47.7489 33.184C48.4277 33.4653 49.0909 33.7795 49.7385 34.125C50.386 34.4722 51.0163 34.849 51.6274 35.2569C52.2385 35.6649 52.827 36.1024 53.3947 36.5677C53.9624 37.0347 54.5058 37.5278 55.0267 38.0469C55.5458 38.566 56.0388 39.1094 56.5041 39.6771C56.9694 40.2448 57.4069 40.8351 57.8149 41.4462C58.2229 42.0573 58.6013 42.6858 58.9468 43.3333C59.294 43.9809 59.6065 44.6458 59.8878 45.3229C60.169 46.0017 60.4173 46.6927 60.6291 47.3958C60.8426 48.099 61.0215 48.8108 61.1638 49.5313C61.3079 50.2517 61.4156 50.9774 61.4885 51.7083C61.5597 52.4392 61.5961 53.1736 61.5961 53.908Z" fill="#FF6584"/>
<path d="M22.301 65.8958C38.9069 65.8958 52.9485 47.8802 58.6742 49.5226C61.4017 50.2951 62.768 49.2622 63.9781 48.2309C65.6482 46.8038 67.0128 45.375 71.2472 48.7274C75.2558 51.8993 77.6274 47.9896 80.3322 44.0833C82.551 40.8802 84.9937 37.6788 88.7506 38.3715C97.0909 39.9184 99.9277 56.3906 99.9277 56.3906H0.217636C0.217636 56.3906 10.7246 65.8958 22.301 65.8958Z" fill="#6C63FF"/>
<path d="M3.70375 58.7292C11.5215 63.9809 21.9277 63.2083 28.8739 56.8629C29.0475 56.6892 29.2472 56.5382 29.4225 56.3906H0.217636L3.70375 58.7292ZM61.4885 61.8646C68.2593 68.6076 78.7923 69.7778 86.8583 64.6771L99.9277 56.3906H55.886C56.2853 56.7379 56.709 57.1111 57.0822 57.4844L61.4885 61.8646ZM29.4225 56.3906H55.886C48.3183 49.9444 37.0892 49.8958 29.4225 56.3906Z" fill="#FF6584"/>
<path d="M35.084 49.7726C36.6169 49.7726 38.2003 50.3333 39.8288 51.6632L39.9034 51.724C36.1465 52.2326 32.4989 53.7847 29.4225 56.3906H25.2142C28.1951 52.8368 31.5024 49.7691 35.084 49.7726ZM0.217636 56.3906C0.217636 56.3906 7.51798 62.9948 16.6517 65.1927C15.2037 66.0712 13.7975 66.4375 12.452 66.4375C5.4416 66.4375 0.217636 56.3906 0.217636 56.3906Z" fill="#6C63FF"/>
<path d="M0.217636 56.3906L3.70375 58.7292C7.16902 61.0556 11.143 62.2014 15.0996 62.2014C17.0822 62.2014 19.0649 61.9132 20.9746 61.3403C19.6117 62.8281 18.2749 64.125 17.0735 64.9254C16.9329 65.0191 16.7923 65.1094 16.6517 65.1927C7.51798 62.9948 0.217636 56.3906 0.217636 56.3906Z" fill="#6C63FF"/>
<path d="M45.5892 56.3906H55.8861C56.2854 56.7379 56.709 57.1111 57.0822 57.4844L61.4885 61.8646C62.4885 62.8629 63.5718 63.7379 64.7176 64.4879C64.7055 64.4931 64.6899 64.4983 64.6742 64.5017C63.0649 65.026 61.5822 65.2639 60.1933 65.2639C54.5267 65.2639 50.4069 61.2951 45.3409 56.5625C45.4225 56.5052 45.5076 56.4479 45.5892 56.3906Z" fill="#6C63FF"/>
<path d="M45.1569 56.3906H45.5892C45.5076 56.4479 45.4225 56.5052 45.3409 56.5625C45.2784 56.5052 45.2176 56.4479 45.1569 56.3906Z" fill="#6C63FF"/>
<path d="M91.7003 61.6059C88.2836 66.7483 86.3426 73.934 81.0076 74.6302C80.709 74.6684 80.426 74.6875 80.1551 74.6875C76.8739 74.6875 75.4381 72.0139 73.9607 69.3385C73.6395 68.7587 73.3183 68.1754 72.9729 67.6198C73.959 67.7656 74.952 67.8368 75.9485 67.8368C79.7124 67.8368 83.4989 66.8004 86.8583 64.6771L91.7003 61.6059Z" fill="#6C63FF"/>
<path d="M39.9034 51.724C41.8149 53.2969 43.5336 54.8906 45.1569 56.3906H29.4225C32.4989 53.7847 36.1465 52.2326 39.9034 51.724ZM0.217636 56.3906H25.2142C23.8617 58.0104 22.4051 59.7795 20.9746 61.3403C19.0649 61.9132 17.0822 62.2014 15.0996 62.2014C11.143 62.2014 7.16902 61.0556 3.70375 58.7292L0.217636 56.3906ZM45.1569 56.3906H55.886H45.1569ZM55.886 56.3906H99.9277C96.0944 56.3906 93.6551 58.6632 91.7003 61.6059L86.8583 64.6771C83.4989 66.8003 79.7124 67.8368 75.9485 67.8368C74.952 67.8368 73.959 67.7656 72.9728 67.6198C71.7385 65.6285 70.2263 63.9913 67.5406 63.9913C66.7194 63.9913 65.7853 64.1458 64.7176 64.4878C63.5718 63.7378 62.4885 62.8628 61.4885 61.8646L57.0822 57.4844C56.709 57.1111 56.2853 56.7378 55.886 56.3906Z" fill="#CB6CE6"/>
<path d="M131.6 49.888C133.648 49.888 135.269 50.5813 136.464 51.968C137.68 53.3333 138.288 55.1893 138.288 57.536V68H132.016V58.368C132.016 57.344 131.749 56.544 131.216 55.968C130.683 55.3707 129.968 55.072 129.072 55.072C128.133 55.072 127.397 55.3707 126.864 55.968C126.331 56.544 126.064 57.344 126.064 58.368V68H119.792V44.32H126.064V52.608C126.619 51.7973 127.365 51.1467 128.304 50.656C129.264 50.144 130.363 49.888 131.6 49.888ZM158.882 58.816C158.882 59.3067 158.85 59.7973 158.786 60.288H146.914C146.978 61.2693 147.244 62.0053 147.714 62.496C148.204 62.9653 148.823 63.2 149.57 63.2C150.615 63.2 151.362 62.7307 151.81 61.792H158.498C158.22 63.0293 157.676 64.1387 156.866 65.12C156.076 66.08 155.074 66.8373 153.858 67.392C152.642 67.9467 151.298 68.224 149.826 68.224C148.055 68.224 146.476 67.8507 145.09 67.104C143.724 66.3573 142.647 65.2907 141.858 63.904C141.09 62.5173 140.706 60.8853 140.706 59.008C140.706 57.1307 141.09 55.5093 141.858 54.144C142.626 52.7573 143.692 51.6907 145.058 50.944C146.444 50.1973 148.034 49.824 149.826 49.824C151.596 49.824 153.164 50.1867 154.53 50.912C155.895 51.6373 156.962 52.6827 157.73 54.048C158.498 55.392 158.882 56.9813 158.882 58.816ZM152.482 57.248C152.482 56.48 152.226 55.8827 151.714 55.456C151.202 55.008 150.562 54.784 149.794 54.784C149.026 54.784 148.396 54.9973 147.906 55.424C147.415 55.8293 147.095 56.4373 146.946 57.248H152.482ZM160.424 59.008C160.424 57.152 160.755 55.5307 161.416 54.144C162.099 52.7573 163.016 51.6907 164.168 50.944C165.342 50.1973 166.643 49.824 168.072 49.824C169.31 49.824 170.376 50.0693 171.272 50.56C172.168 51.0507 172.862 51.712 173.352 52.544V50.048H179.624V68H173.352V65.504C172.862 66.336 172.158 66.9973 171.24 67.488C170.344 67.9787 169.288 68.224 168.072 68.224C166.643 68.224 165.342 67.8507 164.168 67.104C163.016 66.3573 162.099 65.2907 161.416 63.904C160.755 62.496 160.424 60.864 160.424 59.008ZM173.352 59.008C173.352 57.856 173.032 56.9493 172.392 56.288C171.774 55.6267 171.006 55.296 170.088 55.296C169.15 55.296 168.371 55.6267 167.752 56.288C167.134 56.928 166.824 57.8347 166.824 59.008C166.824 60.16 167.134 61.0773 167.752 61.76C168.371 62.4213 169.15 62.752 170.088 62.752C171.006 62.752 171.774 62.4213 172.392 61.76C173.032 61.0987 173.352 60.1813 173.352 59.008ZM189.47 53.216C190.174 52.192 191.028 51.3813 192.03 50.784C193.033 50.1867 194.11 49.888 195.262 49.888V56.576H193.502C192.137 56.576 191.124 56.8427 190.462 57.376C189.801 57.9093 189.47 58.8373 189.47 60.16V68H183.198V50.048H189.47V53.216ZM196.487 59.008C196.487 57.152 196.817 55.5307 197.479 54.144C198.161 52.7573 199.089 51.6907 200.263 50.944C201.436 50.1973 202.737 49.824 204.167 49.824C205.319 49.824 206.343 50.0693 207.239 50.56C208.156 51.0293 208.871 51.68 209.383 52.512V44.32H215.687V68H209.383V65.504C208.892 66.336 208.199 66.9973 207.303 67.488C206.407 67.9787 205.351 68.224 204.135 68.224C202.705 68.224 201.404 67.8507 200.231 67.104C199.079 66.3573 198.161 65.2907 197.479 63.904C196.817 62.496 196.487 60.864 196.487 59.008ZM209.415 59.008C209.415 57.856 209.095 56.9493 208.455 56.288C207.836 55.6267 207.068 55.296 206.151 55.296C205.212 55.296 204.433 55.6267 203.815 56.288C203.196 56.928 202.887 57.8347 202.887 59.008C202.887 60.16 203.196 61.0773 203.815 61.76C204.433 62.4213 205.212 62.752 206.151 62.752C207.068 62.752 207.836 62.4213 208.455 61.76C209.095 61.0987 209.415 60.1813 209.415 59.008ZM228.957 55.264H226.141V68H219.837V55.264H217.885V50.048H219.837V49.888C219.837 47.584 220.509 45.824 221.853 44.608C223.218 43.3707 225.17 42.752 227.709 42.752C228.221 42.752 228.615 42.7627 228.893 42.784V48.128C228.722 48.1067 228.487 48.096 228.189 48.096C227.506 48.096 227.005 48.256 226.685 48.576C226.365 48.8747 226.183 49.3653 226.141 50.048H228.957V55.264ZM237.47 53.216C238.174 52.192 239.028 51.3813 240.03 50.784C241.033 50.1867 242.11 49.888 243.262 49.888V56.576H241.502C240.137 56.576 239.124 56.8427 238.462 57.376C237.801 57.9093 237.47 58.8373 237.47 60.16V68H231.198V50.048H237.47V53.216ZM253.863 68.224C252.071 68.224 250.46 67.8507 249.031 67.104C247.623 66.3573 246.513 65.2907 245.703 63.904C244.892 62.5173 244.487 60.8853 244.487 59.008C244.487 57.152 244.892 55.5307 245.703 54.144C246.535 52.7573 247.655 51.6907 249.063 50.944C250.492 50.1973 252.103 49.824 253.895 49.824C255.687 49.824 257.287 50.1973 258.695 50.944C260.124 51.6907 261.244 52.7573 262.055 54.144C262.887 55.5307 263.303 57.152 263.303 59.008C263.303 60.864 262.887 62.496 262.055 63.904C261.244 65.2907 260.124 66.3573 258.695 67.104C257.265 67.8507 255.655 68.224 253.863 68.224ZM253.863 62.784C254.737 62.784 255.463 62.464 256.039 61.824C256.636 61.1627 256.935 60.224 256.935 59.008C256.935 57.792 256.636 56.864 256.039 56.224C255.463 55.584 254.748 55.264 253.895 55.264C253.041 55.264 252.327 55.584 251.751 56.224C251.175 56.864 250.887 57.792 250.887 59.008C250.887 60.2453 251.164 61.184 251.719 61.824C252.273 62.464 252.988 62.784 253.863 62.784ZM289.311 49.888C291.572 49.888 293.343 50.5707 294.623 51.936C295.924 53.3013 296.575 55.168 296.575 57.536V68H290.303V58.368C290.303 57.408 290.036 56.6613 289.503 56.128C288.969 55.5947 288.244 55.328 287.327 55.328C286.409 55.328 285.684 55.5947 285.151 56.128C284.617 56.6613 284.351 57.408 284.351 58.368V68H278.079V58.368C278.079 57.408 277.812 56.6613 277.279 56.128C276.767 55.5947 276.052 55.328 275.135 55.328C274.196 55.328 273.46 55.5947 272.927 56.128C272.393 56.6613 272.127 57.408 272.127 58.368V68H265.855V50.048H272.127V52.416C272.681 51.648 273.396 51.04 274.271 50.592C275.167 50.1227 276.191 49.888 277.343 49.888C278.665 49.888 279.839 50.176 280.863 50.752C281.908 51.328 282.729 52.1387 283.327 53.184C283.967 52.2027 284.809 51.4133 285.855 50.816C286.9 50.1973 288.052 49.888 289.311 49.888Z" fill="#6C63FF"/>
</svg>
