<svg width="101" height="62" viewBox="0 0 101 62" fill="none" xmlns="http://www.w3.org/2000/svg">
<path d="M20.8041 24.3372C22.0364 18.2787 31.7185 11.8071 39.2882 11.6694C39.8163 11.6694 40.3444 11.5318 40.6965 11.2564C41.0485 11.1187 41.4006 10.981 41.5767 10.5679C44.2172 6.71248 42.8089 3.68323 38.408 1.20475C33.3028 -1.68681 25.2051 1.20475 21.1562 3.82092C10.946 10.4302 0.559711 21.8585 1.08783 32.7365C-0.672558 40.0345 -0.320481 47.8828 2.32009 54.3544C4.08048 58.4852 9.18559 60.5506 14.4667 60.826C19.7479 61.1016 30.6623 62.3406 35.4153 59.8624C40.1683 57.3836 40.5204 52.5644 41.0485 48.4338C41.5766 43.8899 43.161 35.3527 38.2319 31.7727C33.3028 28.3303 19.2198 32.0481 20.8041 24.3372Z" fill="#F9DBE3"/>
<path d="M78.8968 24.3372C80.1291 18.2787 89.8109 11.8071 97.3808 11.6694C97.9089 11.6694 98.4371 11.5318 98.7891 11.2564C99.1415 11.1187 99.4933 10.981 99.6696 10.5679C102.31 6.71248 100.902 3.68323 96.5009 1.20475C91.3958 -1.68681 83.298 1.20475 79.2489 3.82092C69.0386 10.4302 58.6524 21.8588 59.1805 32.7365C57.4201 40.0345 57.7722 47.8828 60.4125 54.3544C62.1729 58.4852 67.278 60.5506 72.5594 60.826C77.8406 61.1016 88.7549 62.3406 93.508 59.8624C98.2607 57.3836 98.6131 52.5644 99.1412 48.4338C99.6693 43.8899 101.254 35.3527 96.3246 31.7727C91.3955 28.3303 77.1364 32.0481 78.8968 24.3372Z" fill="#F9DBE3"/>
</svg>
