<svg xmlns="http://www.w3.org/2000/svg" viewBox="0 0 599.28 599.28"><rect width="599.28" height="599.28" fill="#ffffff" id="bg" class="bg"/><g><g transform="translate(48.28,&#10;                                14.98) rotate(0, 1.6646666666666665, 1.6646666666666665)"><svg xmlns="http://www.w3.org/2000/svg" id="Layer_1" data-name="Layer 1" viewBox="0 0 100 100" width="3.329333333333333" height="3.329333333333333"><circle cx="50" cy="50" r="50" fill="#0068F2"/></svg></g><g transform="translate(48.28,&#10;                                48.28) rotate(0, 1.6646666666666665, 1.6646666666666665)"><svg xmlns="http://www.w3.org/2000/svg" id="Layer_1" data-name="Layer 1" viewBox="0 0 100 100" width="3.329333333333333" height="3.329333333333333"><path d="M100,100A50,50,0,0,0,0,100Z" fill="#48348C"/></svg></g><g transform="translate(114.86,&#10;                                14.98) rotate(180, 1.6646666666666665, 1.6646666666666665)"><svg xmlns="http://www.w3.org/2000/svg" id="Layer_1" data-name="Layer 1" viewBox="0 0 100 100" width="3.329333333333333" height="3.329333333333333"><rect x="48" width="4" height="100" fill="#F700A3"/><rect x="74.215" width="4" height="100" fill="#F700A3"/><rect x="21.785" width="4" height="100" fill="#F700A3"/></svg></g><g transform="translate(114.86,&#10;                                48.28) rotate(0, 1.6646666666666665, 1.6646666666666665)"><svg xmlns="http://www.w3.org/2000/svg" id="Layer_1" data-name="Layer 1" viewBox="0 0 100 100" width="3.329333333333333" height="3.329333333333333"><path d="M100,100A50,50,0,0,0,0,100Z" fill="#48348C"/></svg></g><g transform="translate(148.16,&#10;                                14.98) rotate(90, 1.6646666666666665, 1.6646666666666665)"><svg xmlns="http://www.w3.org/2000/svg" id="Layer_1" data-name="Layer 1" viewBox="0 0 100 100" width="3.329333333333333" height="3.329333333333333"><path d="M100,100A50,50,0,0,0,0,100Z" fill="#48348C"/></svg></g><g transform="translate(181.45,&#10;                                14.98) rotate(0, 1.6646666666666665, 1.6646666666666665)"><svg xmlns="http://www.w3.org/2000/svg" id="Layer_1" data-name="Layer 1" viewBox="0 0 100 100" width="3.329333333333333" height="3.329333333333333"><rect x="48" width="4" height="100" fill="#F700A3"/><rect x="74.215" width="4" height="100" fill="#F700A3"/><rect x="21.785" width="4" height="100" fill="#F700A3"/></svg></g><g transform="translate(148.16,&#10;                                48.28) rotate(90, 1.6646666666666665, 1.6646666666666665)"><svg xmlns="http://www.w3.org/2000/svg" id="Layer_1" data-name="Layer 1" viewBox="0 0 100 100" width="3.329333333333333" height="3.329333333333333"><circle cx="50" cy="50" r="50" fill="#0068F2"/></svg></g><g transform="translate(181.45,&#10;                                48.28) rotate(0, 1.6646666666666665, 1.6646666666666665)"><svg xmlns="http://www.w3.org/2000/svg" id="Layer_1" data-name="Layer 1" viewBox="0 0 100 100" width="3.329333333333333" height="3.329333333333333"><path d="M100,100A50,50,0,0,0,0,100Z" fill="#48348C"/></svg></g><g transform="translate(248.04,&#10;                                14.98) rotate(180, 1.6646666666666665, 1.6646666666666665)"><svg xmlns="http://www.w3.org/2000/svg" id="Layer_1" data-name="Layer 1" viewBox="0 0 100 100" width="3.329333333333333" height="3.329333333333333"><circle cx="50" cy="50" r="50" fill="#0068F2"/></svg></g><g transform="translate(214.74,&#10;                                48.28) rotate(0, 1.6646666666666665, 1.6646666666666665)"><svg xmlns="http://www.w3.org/2000/svg" id="Layer_1" data-name="Layer 1" viewBox="0 0 100 100" width="3.329333333333333" height="3.329333333333333"><path d="M50,100h0A50,50,0,0,1,0,50V0H100V50A50,50,0,0,1,50,100Z" fill="#ED77E5"/></svg></g><g transform="translate(248.04,&#10;                                48.28) rotate(90, 1.6646666666666665, 1.6646666666666665)"><svg xmlns="http://www.w3.org/2000/svg" id="Layer_1" data-name="Layer 1" viewBox="0 0 100 100" width="3.329333333333333" height="3.329333333333333"><path d="M100,100A50,50,0,0,0,0,100Z" fill="#48348C"/></svg></g><g transform="translate(281.33,&#10;                                14.98) rotate(270, 1.6646666666666665, 1.6646666666666665)"><svg xmlns="http://www.w3.org/2000/svg" id="Layer_1" data-name="Layer 1" viewBox="0 0 100 100" width="3.329333333333333" height="3.329333333333333"><path d="M100,100A50,50,0,0,0,0,100Z" fill="#48348C"/></svg></g><g transform="translate(314.62,&#10;                                14.98) rotate(180, 1.6646666666666665, 1.6646666666666665)"><svg xmlns="http://www.w3.org/2000/svg" id="Layer_1" data-name="Layer 1" viewBox="0 0 100 100" width="3.329333333333333" height="3.329333333333333"><circle cx="50" cy="50" r="50" fill="#0068F2"/></svg></g><g transform="translate(281.33,&#10;                                48.28) rotate(270, 1.6646666666666665, 1.6646666666666665)"><svg xmlns="http://www.w3.org/2000/svg" id="Layer_1" data-name="Layer 1" viewBox="0 0 100 100" width="3.329333333333333" height="3.329333333333333"><circle cx="50" cy="50" r="50" fill="#0068F2"/></svg></g><g transform="translate(314.62,&#10;                                48.28) rotate(0, 1.6646666666666665, 1.6646666666666665)"><svg xmlns="http://www.w3.org/2000/svg" id="Layer_1" data-name="Layer 1" viewBox="0 0 100 100" width="3.329333333333333" height="3.329333333333333"><path d="M50,100h0A50,50,0,0,1,0,50V0H100V50A50,50,0,0,1,50,100Z" fill="#ED77E5"/></svg></g><g transform="translate(381.21,&#10;                                14.98) rotate(180, 1.6646666666666665, 1.6646666666666665)"><svg xmlns="http://www.w3.org/2000/svg" id="Layer_1" data-name="Layer 1" viewBox="0 0 100 100" width="3.329333333333333" height="3.329333333333333"><path d="M100,100A50,50,0,0,0,0,100Z" fill="#48348C"/></svg></g><g transform="translate(381.21,&#10;                                48.28) rotate(270, 1.6646666666666665, 1.6646666666666665)"><svg xmlns="http://www.w3.org/2000/svg" id="Layer_1" data-name="Layer 1" viewBox="0 0 100 100" width="3.329333333333333" height="3.329333333333333"><circle cx="50" cy="50" r="50" fill="#0068F2"/></svg></g><g transform="translate(414.50,&#10;                                14.98) rotate(90, 1.6646666666666665, 1.6646666666666665)"><svg xmlns="http://www.w3.org/2000/svg" id="Layer_1" data-name="Layer 1" viewBox="0 0 100 100" width="3.329333333333333" height="3.329333333333333"><path d="M100,100A50,50,0,0,0,0,100Z" fill="#48348C"/></svg></g><g transform="translate(447.80,&#10;                                14.98) rotate(270, 1.6646666666666665, 1.6646666666666665)"><svg xmlns="http://www.w3.org/2000/svg" id="Layer_1" data-name="Layer 1" viewBox="0 0 100 100" width="3.329333333333333" height="3.329333333333333"><rect x="48" width="4" height="100" fill="#F700A3"/><rect x="74.215" width="4" height="100" fill="#F700A3"/><rect x="21.785" width="4" height="100" fill="#F700A3"/></svg></g><g transform="translate(414.50,&#10;                                48.28) rotate(0, 1.6646666666666665, 1.6646666666666665)"><svg xmlns="http://www.w3.org/2000/svg" id="Layer_1" data-name="Layer 1" viewBox="0 0 100 100" width="3.329333333333333" height="3.329333333333333"><path d="M50,100h0A50,50,0,0,1,0,50V0H100V50A50,50,0,0,1,50,100Z" fill="#ED77E5"/></svg></g><g transform="translate(447.80,&#10;                                48.28) rotate(90, 1.6646666666666665, 1.6646666666666665)"><svg xmlns="http://www.w3.org/2000/svg" id="Layer_1" data-name="Layer 1" viewBox="0 0 100 100" width="3.329333333333333" height="3.329333333333333"><path d="M100,100A50,50,0,0,0,0,100Z" fill="#48348C"/></svg></g><g transform="translate(514.38,&#10;                                14.98) rotate(90, 1.6646666666666665, 1.6646666666666665)"><svg xmlns="http://www.w3.org/2000/svg" id="Layer_1" data-name="Layer 1" viewBox="0 0 100 100" width="3.329333333333333" height="3.329333333333333"><path d="M50,100h0A50,50,0,0,1,0,50V0H100V50A50,50,0,0,1,50,100Z" fill="#ED77E5"/></svg></g><g transform="translate(514.38,&#10;                                48.28) rotate(270, 1.6646666666666665, 1.6646666666666665)"><svg xmlns="http://www.w3.org/2000/svg" id="Layer_1" data-name="Layer 1" viewBox="0 0 100 100" width="3.329333333333333" height="3.329333333333333"><circle cx="50" cy="50" r="50" fill="#0068F2"/></svg></g><g transform="translate(580.97,&#10;                                14.98) rotate(180, 1.6646666666666665, 1.6646666666666665)"><svg xmlns="http://www.w3.org/2000/svg" id="Layer_1" data-name="Layer 1" viewBox="0 0 100 100" width="3.329333333333333" height="3.329333333333333"><circle cx="50" cy="50" r="50" fill="#0068F2"/></svg></g><g transform="translate(547.68,&#10;                                48.28) rotate(270, 1.6646666666666665, 1.6646666666666665)"><svg xmlns="http://www.w3.org/2000/svg" id="Layer_1" data-name="Layer 1" viewBox="0 0 100 100" width="3.329333333333333" height="3.329333333333333"><circle cx="50" cy="50" r="50" fill="#0068F2"/></svg></g><g transform="translate(580.97,&#10;                                48.28) rotate(0, 1.6646666666666665, 1.6646666666666665)"><svg xmlns="http://www.w3.org/2000/svg" id="Layer_1" data-name="Layer 1" viewBox="0 0 100 100" width="3.329333333333333" height="3.329333333333333"><circle cx="50" cy="50" r="50" fill="#0068F2"/></svg></g></g><g><g transform="translate(48.28,&#10;                                81.57) rotate(180, 1.6646666666666665, 1.6646666666666665)"><svg xmlns="http://www.w3.org/2000/svg" id="Layer_1" data-name="Layer 1" viewBox="0 0 100 100" width="3.329333333333333" height="3.329333333333333"><rect x="48" width="4" height="100" fill="#F700A3"/><rect x="74.215" width="4" height="100" fill="#F700A3"/><rect x="21.785" width="4" height="100" fill="#F700A3"/></svg></g><g transform="translate(81.57,&#10;                                81.57) rotate(0, 1.6646666666666665, 1.6646666666666665)"><svg xmlns="http://www.w3.org/2000/svg" id="Layer_1" data-name="Layer 1" viewBox="0 0 100 100" width="3.329333333333333" height="3.329333333333333"><path d="M100,100A50,50,0,0,0,0,100Z" fill="#48348C"/></svg></g><g transform="translate(114.86,&#10;                                81.57) rotate(90, 1.6646666666666665, 1.6646666666666665)"><svg xmlns="http://www.w3.org/2000/svg" id="Layer_1" data-name="Layer 1" viewBox="0 0 100 100" width="3.329333333333333" height="3.329333333333333"><rect x="48" width="4" height="100" fill="#F700A3"/><rect x="74.215" width="4" height="100" fill="#F700A3"/><rect x="21.785" width="4" height="100" fill="#F700A3"/></svg></g><g transform="translate(114.86,&#10;                                114.86) rotate(270, 1.6646666666666665, 1.6646666666666665)"><svg xmlns="http://www.w3.org/2000/svg" id="Layer_1" data-name="Layer 1" viewBox="0 0 100 100" width="3.329333333333333" height="3.329333333333333"><circle cx="50" cy="50" r="50" fill="#0068F2"/></svg></g><g transform="translate(181.45,&#10;                                81.57) rotate(90, 1.6646666666666665, 1.6646666666666665)"><svg xmlns="http://www.w3.org/2000/svg" id="Layer_1" data-name="Layer 1" viewBox="0 0 100 100" width="3.329333333333333" height="3.329333333333333"><circle cx="50" cy="50" r="50" fill="#0068F2"/></svg></g><g transform="translate(181.45,&#10;                                114.86) rotate(90, 1.6646666666666665, 1.6646666666666665)"><svg xmlns="http://www.w3.org/2000/svg" id="Layer_1" data-name="Layer 1" viewBox="0 0 100 100" width="3.329333333333333" height="3.329333333333333"><path d="M50,100h0A50,50,0,0,1,0,50V0H100V50A50,50,0,0,1,50,100Z" fill="#ED77E5"/></svg></g><g transform="translate(248.04,&#10;                                81.57) rotate(0, 1.6646666666666665, 1.6646666666666665)"><svg xmlns="http://www.w3.org/2000/svg" id="Layer_1" data-name="Layer 1" viewBox="0 0 100 100" width="3.329333333333333" height="3.329333333333333"><path d="M100,100A50,50,0,0,0,0,100Z" fill="#48348C"/></svg></g><g transform="translate(214.74,&#10;                                114.86) rotate(0, 1.6646666666666665, 1.6646666666666665)"><svg xmlns="http://www.w3.org/2000/svg" id="Layer_1" data-name="Layer 1" viewBox="0 0 100 100" width="3.329333333333333" height="3.329333333333333"><circle cx="50" cy="50" r="50" fill="#0068F2"/></svg></g><g transform="translate(281.33,&#10;                                81.57) rotate(270, 1.6646666666666665, 1.6646666666666665)"><svg xmlns="http://www.w3.org/2000/svg" id="Layer_1" data-name="Layer 1" viewBox="0 0 100 100" width="3.329333333333333" height="3.329333333333333"><path d="M100,100A50,50,0,0,0,0,100Z" fill="#48348C"/></svg></g><g transform="translate(314.62,&#10;                                81.57) rotate(0, 1.6646666666666665, 1.6646666666666665)"><svg xmlns="http://www.w3.org/2000/svg" id="Layer_1" data-name="Layer 1" viewBox="0 0 100 100" width="3.329333333333333" height="3.329333333333333"><circle cx="50" cy="50" r="50" fill="#0068F2"/></svg></g><g transform="translate(314.62,&#10;                                114.86) rotate(180, 1.6646666666666665, 1.6646666666666665)"><svg xmlns="http://www.w3.org/2000/svg" id="Layer_1" data-name="Layer 1" viewBox="0 0 100 100" width="3.329333333333333" height="3.329333333333333"><circle cx="50" cy="50" r="50" fill="#0068F2"/></svg></g><g transform="translate(347.92,&#10;                                81.57) rotate(0, 1.6646666666666665, 1.6646666666666665)"><svg xmlns="http://www.w3.org/2000/svg" id="Layer_1" data-name="Layer 1" viewBox="0 0 100 100" width="3.329333333333333" height="3.329333333333333"><path d="M100,100A50,50,0,0,0,0,100Z" fill="#48348C"/></svg></g><g transform="translate(381.21,&#10;                                81.57) rotate(270, 1.6646666666666665, 1.6646666666666665)"><svg xmlns="http://www.w3.org/2000/svg" id="Layer_1" data-name="Layer 1" viewBox="0 0 100 100" width="3.329333333333333" height="3.329333333333333"><path d="M50,100h0A50,50,0,0,1,0,50V0H100V50A50,50,0,0,1,50,100Z" fill="#ED77E5"/></svg></g><g transform="translate(347.92,&#10;                                114.86) rotate(270, 1.6646666666666665, 1.6646666666666665)"><svg xmlns="http://www.w3.org/2000/svg" id="Layer_1" data-name="Layer 1" viewBox="0 0 100 100" width="3.329333333333333" height="3.329333333333333"><path d="M50,100h0A50,50,0,0,1,0,50V0H100V50A50,50,0,0,1,50,100Z" fill="#ED77E5"/></svg></g><g transform="translate(447.80,&#10;                                81.57) rotate(270, 1.6646666666666665, 1.6646666666666665)"><svg xmlns="http://www.w3.org/2000/svg" id="Layer_1" data-name="Layer 1" viewBox="0 0 100 100" width="3.329333333333333" height="3.329333333333333"><rect x="48" width="4" height="100" fill="#F700A3"/><rect x="74.215" width="4" height="100" fill="#F700A3"/><rect x="21.785" width="4" height="100" fill="#F700A3"/></svg></g><g transform="translate(447.80,&#10;                                114.86) rotate(180, 1.6646666666666665, 1.6646666666666665)"><svg xmlns="http://www.w3.org/2000/svg" id="Layer_1" data-name="Layer 1" viewBox="0 0 100 100" width="3.329333333333333" height="3.329333333333333"><circle cx="50" cy="50" r="50" fill="#0068F2"/></svg></g><g transform="translate(514.38,&#10;                                81.57) rotate(270, 1.6646666666666665, 1.6646666666666665)"><svg xmlns="http://www.w3.org/2000/svg" id="Layer_1" data-name="Layer 1" viewBox="0 0 100 100" width="3.329333333333333" height="3.329333333333333"><circle cx="50" cy="50" r="50" fill="#0068F2"/></svg></g><g transform="translate(514.38,&#10;                                114.86) rotate(270, 1.6646666666666665, 1.6646666666666665)"><svg xmlns="http://www.w3.org/2000/svg" id="Layer_1" data-name="Layer 1" viewBox="0 0 100 100" width="3.329333333333333" height="3.329333333333333"><circle cx="50" cy="50" r="50" fill="#0068F2"/></svg></g><g transform="translate(580.97,&#10;                                81.57) rotate(90, 1.6646666666666665, 1.6646666666666665)"><svg xmlns="http://www.w3.org/2000/svg" id="Layer_1" data-name="Layer 1" viewBox="0 0 100 100" width="3.329333333333333" height="3.329333333333333"><rect x="48" width="4" height="100" fill="#F700A3"/><rect x="74.215" width="4" height="100" fill="#F700A3"/><rect x="21.785" width="4" height="100" fill="#F700A3"/></svg></g><g transform="translate(580.97,&#10;                                114.86) rotate(0, 1.6646666666666665, 1.6646666666666665)"><svg xmlns="http://www.w3.org/2000/svg" id="Layer_1" data-name="Layer 1" viewBox="0 0 100 100" width="3.329333333333333" height="3.329333333333333"><circle cx="50" cy="50" r="50" fill="#0068F2"/></svg></g></g><g><g transform="translate(14.98,&#10;                                148.16) rotate(180, 1.6646666666666665, 1.6646666666666665)"><svg xmlns="http://www.w3.org/2000/svg" id="Layer_1" data-name="Layer 1" viewBox="0 0 100 100" width="3.329333333333333" height="3.329333333333333"><path d="M100,100A50,50,0,0,0,0,100Z" fill="#48348C"/></svg></g><g transform="translate(48.28,&#10;                                148.16) rotate(270, 1.6646666666666665, 1.6646666666666665)"><svg xmlns="http://www.w3.org/2000/svg" id="Layer_1" data-name="Layer 1" viewBox="0 0 100 100" width="3.329333333333333" height="3.329333333333333"><rect x="48" width="4" height="100" fill="#F700A3"/><rect x="74.215" width="4" height="100" fill="#F700A3"/><rect x="21.785" width="4" height="100" fill="#F700A3"/></svg></g><g transform="translate(14.98,&#10;                                181.45) rotate(180, 1.6646666666666665, 1.6646666666666665)"><svg xmlns="http://www.w3.org/2000/svg" id="Layer_1" data-name="Layer 1" viewBox="0 0 100 100" width="3.329333333333333" height="3.329333333333333"><rect x="48" width="4" height="100" fill="#F700A3"/><rect x="74.215" width="4" height="100" fill="#F700A3"/><rect x="21.785" width="4" height="100" fill="#F700A3"/></svg></g><g transform="translate(48.28,&#10;                                181.45) rotate(90, 1.6646666666666665, 1.6646666666666665)"><svg xmlns="http://www.w3.org/2000/svg" id="Layer_1" data-name="Layer 1" viewBox="0 0 100 100" width="3.329333333333333" height="3.329333333333333"><path d="M100,100A50,50,0,0,0,0,100Z" fill="#48348C"/></svg></g><g transform="translate(114.86,&#10;                                148.16) rotate(90, 1.6646666666666665, 1.6646666666666665)"><svg xmlns="http://www.w3.org/2000/svg" id="Layer_1" data-name="Layer 1" viewBox="0 0 100 100" width="3.329333333333333" height="3.329333333333333"><path d="M100,100A50,50,0,0,0,0,100Z" fill="#48348C"/></svg></g><g transform="translate(114.86,&#10;                                181.45) rotate(0, 1.6646666666666665, 1.6646666666666665)"><svg xmlns="http://www.w3.org/2000/svg" id="Layer_1" data-name="Layer 1" viewBox="0 0 100 100" width="3.329333333333333" height="3.329333333333333"><path d="M100,100A50,50,0,0,0,0,100Z" fill="#48348C"/></svg></g><g transform="translate(148.16,&#10;                                148.16) rotate(270, 1.6646666666666665, 1.6646666666666665)"><svg xmlns="http://www.w3.org/2000/svg" id="Layer_1" data-name="Layer 1" viewBox="0 0 100 100" width="3.329333333333333" height="3.329333333333333"><path d="M100,100A50,50,0,0,0,0,100Z" fill="#48348C"/></svg></g><g transform="translate(181.45,&#10;                                148.16) rotate(90, 1.6646666666666665, 1.6646666666666665)"><svg xmlns="http://www.w3.org/2000/svg" id="Layer_1" data-name="Layer 1" viewBox="0 0 100 100" width="3.329333333333333" height="3.329333333333333"><rect x="48" width="4" height="100" fill="#F700A3"/><rect x="74.215" width="4" height="100" fill="#F700A3"/><rect x="21.785" width="4" height="100" fill="#F700A3"/></svg></g><g transform="translate(181.45,&#10;                                181.45) rotate(270, 1.6646666666666665, 1.6646666666666665)"><svg xmlns="http://www.w3.org/2000/svg" id="Layer_1" data-name="Layer 1" viewBox="0 0 100 100" width="3.329333333333333" height="3.329333333333333"><path d="M100,100A50,50,0,0,0,0,100Z" fill="#48348C"/></svg></g><g transform="translate(214.74,&#10;                                148.16) rotate(270, 1.6646666666666665, 1.6646666666666665)"><svg xmlns="http://www.w3.org/2000/svg" id="Layer_1" data-name="Layer 1" viewBox="0 0 100 100" width="3.329333333333333" height="3.329333333333333"><path d="M100,100A50,50,0,0,0,0,100Z" fill="#48348C"/></svg></g><g transform="translate(248.04,&#10;                                148.16) rotate(0, 1.6646666666666665, 1.6646666666666665)"><svg xmlns="http://www.w3.org/2000/svg" id="Layer_1" data-name="Layer 1" viewBox="0 0 100 100" width="3.329333333333333" height="3.329333333333333"><path d="M50,100h0A50,50,0,0,1,0,50V0H100V50A50,50,0,0,1,50,100Z" fill="#ED77E5"/></svg></g><g transform="translate(248.04,&#10;                                181.45) rotate(90, 1.6646666666666665, 1.6646666666666665)"><svg xmlns="http://www.w3.org/2000/svg" id="Layer_1" data-name="Layer 1" viewBox="0 0 100 100" width="3.329333333333333" height="3.329333333333333"><path d="M50,100h0A50,50,0,0,1,0,50V0H100V50A50,50,0,0,1,50,100Z" fill="#ED77E5"/></svg></g><g transform="translate(314.62,&#10;                                148.16) rotate(0, 1.6646666666666665, 1.6646666666666665)"><svg xmlns="http://www.w3.org/2000/svg" id="Layer_1" data-name="Layer 1" viewBox="0 0 100 100" width="3.329333333333333" height="3.329333333333333"><circle cx="50" cy="50" r="50" fill="#0068F2"/></svg></g><g transform="translate(381.21,&#10;                                148.16) rotate(180, 1.6646666666666665, 1.6646666666666665)"><svg xmlns="http://www.w3.org/2000/svg" id="Layer_1" data-name="Layer 1" viewBox="0 0 100 100" width="3.329333333333333" height="3.329333333333333"><rect x="48" width="4" height="100" fill="#F700A3"/><rect x="74.215" width="4" height="100" fill="#F700A3"/><rect x="21.785" width="4" height="100" fill="#F700A3"/></svg></g><g transform="translate(347.92,&#10;                                181.45) rotate(90, 1.6646666666666665, 1.6646666666666665)"><svg xmlns="http://www.w3.org/2000/svg" id="Layer_1" data-name="Layer 1" viewBox="0 0 100 100" width="3.329333333333333" height="3.329333333333333"><circle cx="50" cy="50" r="50" fill="#0068F2"/></svg></g><g transform="translate(447.80,&#10;                                148.16) rotate(90, 1.6646666666666665, 1.6646666666666665)"><svg xmlns="http://www.w3.org/2000/svg" id="Layer_1" data-name="Layer 1" viewBox="0 0 100 100" width="3.329333333333333" height="3.329333333333333"><path d="M100,100A50,50,0,0,0,0,100Z" fill="#48348C"/></svg></g><g transform="translate(414.50,&#10;                                181.45) rotate(90, 1.6646666666666665, 1.6646666666666665)"><svg xmlns="http://www.w3.org/2000/svg" id="Layer_1" data-name="Layer 1" viewBox="0 0 100 100" width="3.329333333333333" height="3.329333333333333"><path d="M50,100h0A50,50,0,0,1,0,50V0H100V50A50,50,0,0,1,50,100Z" fill="#ED77E5"/></svg></g><g transform="translate(447.80,&#10;                                181.45) rotate(90, 1.6646666666666665, 1.6646666666666665)"><svg xmlns="http://www.w3.org/2000/svg" id="Layer_1" data-name="Layer 1" viewBox="0 0 100 100" width="3.329333333333333" height="3.329333333333333"><circle cx="50" cy="50" r="50" fill="#0068F2"/></svg></g><g transform="translate(481.09,&#10;                                148.16) rotate(90, 1.6646666666666665, 1.6646666666666665)"><svg xmlns="http://www.w3.org/2000/svg" id="Layer_1" data-name="Layer 1" viewBox="0 0 100 100" width="3.329333333333333" height="3.329333333333333"><path d="M100,100A50,50,0,0,0,0,100Z" fill="#48348C"/></svg></g><g transform="translate(514.38,&#10;                                148.16) rotate(0, 1.6646666666666665, 1.6646666666666665)"><svg xmlns="http://www.w3.org/2000/svg" id="Layer_1" data-name="Layer 1" viewBox="0 0 100 100" width="3.329333333333333" height="3.329333333333333"><rect x="48" width="4" height="100" fill="#F700A3"/><rect x="74.215" width="4" height="100" fill="#F700A3"/><rect x="21.785" width="4" height="100" fill="#F700A3"/></svg></g><g transform="translate(514.38,&#10;                                181.45) rotate(180, 1.6646666666666665, 1.6646666666666665)"><svg xmlns="http://www.w3.org/2000/svg" id="Layer_1" data-name="Layer 1" viewBox="0 0 100 100" width="3.329333333333333" height="3.329333333333333"><path d="M100,100A50,50,0,0,0,0,100Z" fill="#48348C"/></svg></g><g transform="translate(547.68,&#10;                                148.16) rotate(0, 1.6646666666666665, 1.6646666666666665)"><svg xmlns="http://www.w3.org/2000/svg" id="Layer_1" data-name="Layer 1" viewBox="0 0 100 100" width="3.329333333333333" height="3.329333333333333"><path d="M100,100A50,50,0,0,0,0,100Z" fill="#48348C"/></svg></g><g transform="translate(580.97,&#10;                                148.16) rotate(270, 1.6646666666666665, 1.6646666666666665)"><svg xmlns="http://www.w3.org/2000/svg" id="Layer_1" data-name="Layer 1" viewBox="0 0 100 100" width="3.329333333333333" height="3.329333333333333"><circle cx="50" cy="50" r="50" fill="#0068F2"/></svg></g><g transform="translate(580.97,&#10;                                181.45) rotate(180, 1.6646666666666665, 1.6646666666666665)"><svg xmlns="http://www.w3.org/2000/svg" id="Layer_1" data-name="Layer 1" viewBox="0 0 100 100" width="3.329333333333333" height="3.329333333333333"><path d="M100,100A50,50,0,0,0,0,100Z" fill="#48348C"/></svg></g></g><g><g transform="translate(48.28,&#10;                                214.74) rotate(90, 1.6646666666666665, 1.6646666666666665)"><svg xmlns="http://www.w3.org/2000/svg" id="Layer_1" data-name="Layer 1" viewBox="0 0 100 100" width="3.329333333333333" height="3.329333333333333"><circle cx="50" cy="50" r="50" fill="#0068F2"/></svg></g><g transform="translate(48.28,&#10;                                248.04) rotate(270, 1.6646666666666665, 1.6646666666666665)"><svg xmlns="http://www.w3.org/2000/svg" id="Layer_1" data-name="Layer 1" viewBox="0 0 100 100" width="3.329333333333333" height="3.329333333333333"><path d="M50,100h0A50,50,0,0,1,0,50V0H100V50A50,50,0,0,1,50,100Z" fill="#ED77E5"/></svg></g><g transform="translate(114.86,&#10;                                214.74) rotate(0, 1.6646666666666665, 1.6646666666666665)"><svg xmlns="http://www.w3.org/2000/svg" id="Layer_1" data-name="Layer 1" viewBox="0 0 100 100" width="3.329333333333333" height="3.329333333333333"><path d="M100,100A50,50,0,0,0,0,100Z" fill="#48348C"/></svg></g><g transform="translate(114.86,&#10;                                248.04) rotate(0, 1.6646666666666665, 1.6646666666666665)"><svg xmlns="http://www.w3.org/2000/svg" id="Layer_1" data-name="Layer 1" viewBox="0 0 100 100" width="3.329333333333333" height="3.329333333333333"><circle cx="50" cy="50" r="50" fill="#0068F2"/></svg></g><g transform="translate(181.45,&#10;                                214.74) rotate(270, 1.6646666666666665, 1.6646666666666665)"><svg xmlns="http://www.w3.org/2000/svg" id="Layer_1" data-name="Layer 1" viewBox="0 0 100 100" width="3.329333333333333" height="3.329333333333333"><circle cx="50" cy="50" r="50" fill="#0068F2"/></svg></g><g transform="translate(181.45,&#10;                                248.04) rotate(90, 1.6646666666666665, 1.6646666666666665)"><svg xmlns="http://www.w3.org/2000/svg" id="Layer_1" data-name="Layer 1" viewBox="0 0 100 100" width="3.329333333333333" height="3.329333333333333"><circle cx="50" cy="50" r="50" fill="#0068F2"/></svg></g><g transform="translate(248.04,&#10;                                214.74) rotate(180, 1.6646666666666665, 1.6646666666666665)"><svg xmlns="http://www.w3.org/2000/svg" id="Layer_1" data-name="Layer 1" viewBox="0 0 100 100" width="3.329333333333333" height="3.329333333333333"><path d="M100,100A50,50,0,0,0,0,100Z" fill="#48348C"/></svg></g><g transform="translate(214.74,&#10;                                248.04) rotate(180, 1.6646666666666665, 1.6646666666666665)"><svg xmlns="http://www.w3.org/2000/svg" id="Layer_1" data-name="Layer 1" viewBox="0 0 100 100" width="3.329333333333333" height="3.329333333333333"><rect x="48" width="4" height="100" fill="#F700A3"/><rect x="74.215" width="4" height="100" fill="#F700A3"/><rect x="21.785" width="4" height="100" fill="#F700A3"/></svg></g><g transform="translate(248.04,&#10;                                248.04) rotate(0, 1.6646666666666665, 1.6646666666666665)"><svg xmlns="http://www.w3.org/2000/svg" id="Layer_1" data-name="Layer 1" viewBox="0 0 100 100" width="3.329333333333333" height="3.329333333333333"><path d="M100,100A50,50,0,0,0,0,100Z" fill="#48348C"/></svg></g><g transform="translate(314.62,&#10;                                214.74) rotate(90, 1.6646666666666665, 1.6646666666666665)"><svg xmlns="http://www.w3.org/2000/svg" id="Layer_1" data-name="Layer 1" viewBox="0 0 100 100" width="3.329333333333333" height="3.329333333333333"><circle cx="50" cy="50" r="50" fill="#0068F2"/></svg></g><g transform="translate(381.21,&#10;                                214.74) rotate(90, 1.6646666666666665, 1.6646666666666665)"><svg xmlns="http://www.w3.org/2000/svg" id="Layer_1" data-name="Layer 1" viewBox="0 0 100 100" width="3.329333333333333" height="3.329333333333333"><rect x="48" width="4" height="100" fill="#F700A3"/><rect x="74.215" width="4" height="100" fill="#F700A3"/><rect x="21.785" width="4" height="100" fill="#F700A3"/></svg></g><g transform="translate(447.80,&#10;                                214.74) rotate(0, 1.6646666666666665, 1.6646666666666665)"><svg xmlns="http://www.w3.org/2000/svg" id="Layer_1" data-name="Layer 1" viewBox="0 0 100 100" width="3.329333333333333" height="3.329333333333333"><circle cx="50" cy="50" r="50" fill="#0068F2"/></svg></g><g transform="translate(481.09,&#10;                                214.74) rotate(270, 1.6646666666666665, 1.6646666666666665)"><svg xmlns="http://www.w3.org/2000/svg" id="Layer_1" data-name="Layer 1" viewBox="0 0 100 100" width="3.329333333333333" height="3.329333333333333"><path d="M100,100A50,50,0,0,0,0,100Z" fill="#48348C"/></svg></g><g transform="translate(514.38,&#10;                                214.74) rotate(180, 1.6646666666666665, 1.6646666666666665)"><svg xmlns="http://www.w3.org/2000/svg" id="Layer_1" data-name="Layer 1" viewBox="0 0 100 100" width="3.329333333333333" height="3.329333333333333"><rect x="48" width="4" height="100" fill="#F700A3"/><rect x="74.215" width="4" height="100" fill="#F700A3"/><rect x="21.785" width="4" height="100" fill="#F700A3"/></svg></g><g transform="translate(514.38,&#10;                                248.04) rotate(180, 1.6646666666666665, 1.6646666666666665)"><svg xmlns="http://www.w3.org/2000/svg" id="Layer_1" data-name="Layer 1" viewBox="0 0 100 100" width="3.329333333333333" height="3.329333333333333"><path d="M100,100A50,50,0,0,0,0,100Z" fill="#48348C"/></svg></g><g transform="translate(547.68,&#10;                                214.74) rotate(0, 1.6646666666666665, 1.6646666666666665)"><svg xmlns="http://www.w3.org/2000/svg" id="Layer_1" data-name="Layer 1" viewBox="0 0 100 100" width="3.329333333333333" height="3.329333333333333"><path d="M100,100A50,50,0,0,0,0,100Z" fill="#48348C"/></svg></g><g transform="translate(580.97,&#10;                                214.74) rotate(270, 1.6646666666666665, 1.6646666666666665)"><svg xmlns="http://www.w3.org/2000/svg" id="Layer_1" data-name="Layer 1" viewBox="0 0 100 100" width="3.329333333333333" height="3.329333333333333"><rect x="48" width="4" height="100" fill="#F700A3"/><rect x="74.215" width="4" height="100" fill="#F700A3"/><rect x="21.785" width="4" height="100" fill="#F700A3"/></svg></g></g><g><g transform="translate(14.98,&#10;                                281.33) rotate(270, 1.6646666666666665, 1.6646666666666665)"><svg xmlns="http://www.w3.org/2000/svg" id="Layer_1" data-name="Layer 1" viewBox="0 0 100 100" width="3.329333333333333" height="3.329333333333333"><path d="M100,100A50,50,0,0,0,0,100Z" fill="#48348C"/></svg></g><g transform="translate(48.28,&#10;                                281.33) rotate(270, 1.6646666666666665, 1.6646666666666665)"><svg xmlns="http://www.w3.org/2000/svg" id="Layer_1" data-name="Layer 1" viewBox="0 0 100 100" width="3.329333333333333" height="3.329333333333333"><circle cx="50" cy="50" r="50" fill="#0068F2"/></svg></g><g transform="translate(14.98,&#10;                                314.62) rotate(270, 1.6646666666666665, 1.6646666666666665)"><svg xmlns="http://www.w3.org/2000/svg" id="Layer_1" data-name="Layer 1" viewBox="0 0 100 100" width="3.329333333333333" height="3.329333333333333"><circle cx="50" cy="50" r="50" fill="#0068F2"/></svg></g><g transform="translate(81.57,&#10;                                281.33) rotate(0, 1.6646666666666665, 1.6646666666666665)"><svg xmlns="http://www.w3.org/2000/svg" id="Layer_1" data-name="Layer 1" viewBox="0 0 100 100" width="3.329333333333333" height="3.329333333333333"><path d="M100,100A50,50,0,0,0,0,100Z" fill="#48348C"/></svg></g><g transform="translate(114.86,&#10;                                281.33) rotate(180, 1.6646666666666665, 1.6646666666666665)"><svg xmlns="http://www.w3.org/2000/svg" id="Layer_1" data-name="Layer 1" viewBox="0 0 100 100" width="3.329333333333333" height="3.329333333333333"><rect x="48" width="4" height="100" fill="#F700A3"/><rect x="74.215" width="4" height="100" fill="#F700A3"/><rect x="21.785" width="4" height="100" fill="#F700A3"/></svg></g><g transform="translate(114.86,&#10;                                314.62) rotate(270, 1.6646666666666665, 1.6646666666666665)"><svg xmlns="http://www.w3.org/2000/svg" id="Layer_1" data-name="Layer 1" viewBox="0 0 100 100" width="3.329333333333333" height="3.329333333333333"><path d="M100,100A50,50,0,0,0,0,100Z" fill="#48348C"/></svg></g><g transform="translate(181.45,&#10;                                281.33) rotate(90, 1.6646666666666665, 1.6646666666666665)"><svg xmlns="http://www.w3.org/2000/svg" id="Layer_1" data-name="Layer 1" viewBox="0 0 100 100" width="3.329333333333333" height="3.329333333333333"><circle cx="50" cy="50" r="50" fill="#0068F2"/></svg></g><g transform="translate(181.45,&#10;                                314.62) rotate(0, 1.6646666666666665, 1.6646666666666665)"><svg xmlns="http://www.w3.org/2000/svg" id="Layer_1" data-name="Layer 1" viewBox="0 0 100 100" width="3.329333333333333" height="3.329333333333333"><path d="M100,100A50,50,0,0,0,0,100Z" fill="#48348C"/></svg></g><g transform="translate(214.74,&#10;                                281.33) rotate(0, 1.6646666666666665, 1.6646666666666665)"><svg xmlns="http://www.w3.org/2000/svg" id="Layer_1" data-name="Layer 1" viewBox="0 0 100 100" width="3.329333333333333" height="3.329333333333333"><path d="M100,100A50,50,0,0,0,0,100Z" fill="#48348C"/></svg></g><g transform="translate(248.04,&#10;                                281.33) rotate(270, 1.6646666666666665, 1.6646666666666665)"><svg xmlns="http://www.w3.org/2000/svg" id="Layer_1" data-name="Layer 1" viewBox="0 0 100 100" width="3.329333333333333" height="3.329333333333333"><path d="M50,100h0A50,50,0,0,1,0,50V0H100V50A50,50,0,0,1,50,100Z" fill="#ED77E5"/></svg></g><g transform="translate(248.04,&#10;                                314.62) rotate(0, 1.6646666666666665, 1.6646666666666665)"><svg xmlns="http://www.w3.org/2000/svg" id="Layer_1" data-name="Layer 1" viewBox="0 0 100 100" width="3.329333333333333" height="3.329333333333333"><path d="M100,100A50,50,0,0,0,0,100Z" fill="#48348C"/></svg></g><g transform="translate(281.33,&#10;                                281.33) rotate(0, 1.6646666666666665, 1.6646666666666665)"><svg xmlns="http://www.w3.org/2000/svg" id="Layer_1" data-name="Layer 1" viewBox="0 0 100 100" width="3.329333333333333" height="3.329333333333333"><path d="M100,100A50,50,0,0,0,0,100Z" fill="#48348C"/></svg></g><g transform="translate(314.62,&#10;                                281.33) rotate(270, 1.6646666666666665, 1.6646666666666665)"><svg xmlns="http://www.w3.org/2000/svg" id="Layer_1" data-name="Layer 1" viewBox="0 0 100 100" width="3.329333333333333" height="3.329333333333333"><circle cx="50" cy="50" r="50" fill="#0068F2"/></svg></g><g transform="translate(314.62,&#10;                                314.62) rotate(0, 1.6646666666666665, 1.6646666666666665)"><svg xmlns="http://www.w3.org/2000/svg" id="Layer_1" data-name="Layer 1" viewBox="0 0 100 100" width="3.329333333333333" height="3.329333333333333"><circle cx="50" cy="50" r="50" fill="#0068F2"/></svg></g><g transform="translate(347.92,&#10;                                281.33) rotate(90, 1.6646666666666665, 1.6646666666666665)"><svg xmlns="http://www.w3.org/2000/svg" id="Layer_1" data-name="Layer 1" viewBox="0 0 100 100" width="3.329333333333333" height="3.329333333333333"><path d="M100,100A50,50,0,0,0,0,100Z" fill="#48348C"/></svg></g><g transform="translate(381.21,&#10;                                281.33) rotate(90, 1.6646666666666665, 1.6646666666666665)"><svg xmlns="http://www.w3.org/2000/svg" id="Layer_1" data-name="Layer 1" viewBox="0 0 100 100" width="3.329333333333333" height="3.329333333333333"><path d="M50,100h0A50,50,0,0,1,0,50V0H100V50A50,50,0,0,1,50,100Z" fill="#ED77E5"/></svg></g><g transform="translate(347.92,&#10;                                314.62) rotate(180, 1.6646666666666665, 1.6646666666666665)"><svg xmlns="http://www.w3.org/2000/svg" id="Layer_1" data-name="Layer 1" viewBox="0 0 100 100" width="3.329333333333333" height="3.329333333333333"><rect x="48" width="4" height="100" fill="#F700A3"/><rect x="74.215" width="4" height="100" fill="#F700A3"/><rect x="21.785" width="4" height="100" fill="#F700A3"/></svg></g><g transform="translate(381.21,&#10;                                314.62) rotate(90, 1.6646666666666665, 1.6646666666666665)"><svg xmlns="http://www.w3.org/2000/svg" id="Layer_1" data-name="Layer 1" viewBox="0 0 100 100" width="3.329333333333333" height="3.329333333333333"><path d="M50,100h0A50,50,0,0,1,0,50V0H100V50A50,50,0,0,1,50,100Z" fill="#ED77E5"/></svg></g><g transform="translate(447.80,&#10;                                281.33) rotate(180, 1.6646666666666665, 1.6646666666666665)"><svg xmlns="http://www.w3.org/2000/svg" id="Layer_1" data-name="Layer 1" viewBox="0 0 100 100" width="3.329333333333333" height="3.329333333333333"><circle cx="50" cy="50" r="50" fill="#0068F2"/></svg></g><g transform="translate(447.80,&#10;                                314.62) rotate(180, 1.6646666666666665, 1.6646666666666665)"><svg xmlns="http://www.w3.org/2000/svg" id="Layer_1" data-name="Layer 1" viewBox="0 0 100 100" width="3.329333333333333" height="3.329333333333333"><circle cx="50" cy="50" r="50" fill="#0068F2"/></svg></g><g transform="translate(514.38,&#10;                                281.33) rotate(90, 1.6646666666666665, 1.6646666666666665)"><svg xmlns="http://www.w3.org/2000/svg" id="Layer_1" data-name="Layer 1" viewBox="0 0 100 100" width="3.329333333333333" height="3.329333333333333"><path d="M100,100A50,50,0,0,0,0,100Z" fill="#48348C"/></svg></g><g transform="translate(580.97,&#10;                                281.33) rotate(90, 1.6646666666666665, 1.6646666666666665)"><svg xmlns="http://www.w3.org/2000/svg" id="Layer_1" data-name="Layer 1" viewBox="0 0 100 100" width="3.329333333333333" height="3.329333333333333"><rect x="48" width="4" height="100" fill="#F700A3"/><rect x="74.215" width="4" height="100" fill="#F700A3"/><rect x="21.785" width="4" height="100" fill="#F700A3"/></svg></g></g><g><g transform="translate(48.28,&#10;                                347.92) rotate(90, 1.6646666666666665, 1.6646666666666665)"><svg xmlns="http://www.w3.org/2000/svg" id="Layer_1" data-name="Layer 1" viewBox="0 0 100 100" width="3.329333333333333" height="3.329333333333333"><rect x="48" width="4" height="100" fill="#F700A3"/><rect x="74.215" width="4" height="100" fill="#F700A3"/><rect x="21.785" width="4" height="100" fill="#F700A3"/></svg></g><g transform="translate(114.86,&#10;                                347.92) rotate(270, 1.6646666666666665, 1.6646666666666665)"><svg xmlns="http://www.w3.org/2000/svg" id="Layer_1" data-name="Layer 1" viewBox="0 0 100 100" width="3.329333333333333" height="3.329333333333333"><circle cx="50" cy="50" r="50" fill="#0068F2"/></svg></g><g transform="translate(81.57,&#10;                                381.21) rotate(180, 1.6646666666666665, 1.6646666666666665)"><svg xmlns="http://www.w3.org/2000/svg" id="Layer_1" data-name="Layer 1" viewBox="0 0 100 100" width="3.329333333333333" height="3.329333333333333"><rect x="48" width="4" height="100" fill="#F700A3"/><rect x="74.215" width="4" height="100" fill="#F700A3"/><rect x="21.785" width="4" height="100" fill="#F700A3"/></svg></g><g transform="translate(181.45,&#10;                                347.92) rotate(0, 1.6646666666666665, 1.6646666666666665)"><svg xmlns="http://www.w3.org/2000/svg" id="Layer_1" data-name="Layer 1" viewBox="0 0 100 100" width="3.329333333333333" height="3.329333333333333"><circle cx="50" cy="50" r="50" fill="#0068F2"/></svg></g><g transform="translate(181.45,&#10;                                381.21) rotate(180, 1.6646666666666665, 1.6646666666666665)"><svg xmlns="http://www.w3.org/2000/svg" id="Layer_1" data-name="Layer 1" viewBox="0 0 100 100" width="3.329333333333333" height="3.329333333333333"><circle cx="50" cy="50" r="50" fill="#0068F2"/></svg></g><g transform="translate(248.04,&#10;                                347.92) rotate(270, 1.6646666666666665, 1.6646666666666665)"><svg xmlns="http://www.w3.org/2000/svg" id="Layer_1" data-name="Layer 1" viewBox="0 0 100 100" width="3.329333333333333" height="3.329333333333333"><path d="M100,100A50,50,0,0,0,0,100Z" fill="#48348C"/></svg></g><g transform="translate(214.74,&#10;                                381.21) rotate(270, 1.6646666666666665, 1.6646666666666665)"><svg xmlns="http://www.w3.org/2000/svg" id="Layer_1" data-name="Layer 1" viewBox="0 0 100 100" width="3.329333333333333" height="3.329333333333333"><circle cx="50" cy="50" r="50" fill="#0068F2"/></svg></g><g transform="translate(248.04,&#10;                                381.21) rotate(180, 1.6646666666666665, 1.6646666666666665)"><svg xmlns="http://www.w3.org/2000/svg" id="Layer_1" data-name="Layer 1" viewBox="0 0 100 100" width="3.329333333333333" height="3.329333333333333"><path d="M100,100A50,50,0,0,0,0,100Z" fill="#48348C"/></svg></g><g transform="translate(314.62,&#10;                                347.92) rotate(90, 1.6646666666666665, 1.6646666666666665)"><svg xmlns="http://www.w3.org/2000/svg" id="Layer_1" data-name="Layer 1" viewBox="0 0 100 100" width="3.329333333333333" height="3.329333333333333"><path d="M50,100h0A50,50,0,0,1,0,50V0H100V50A50,50,0,0,1,50,100Z" fill="#ED77E5"/></svg></g><g transform="translate(314.62,&#10;                                381.21) rotate(270, 1.6646666666666665, 1.6646666666666665)"><svg xmlns="http://www.w3.org/2000/svg" id="Layer_1" data-name="Layer 1" viewBox="0 0 100 100" width="3.329333333333333" height="3.329333333333333"><path d="M100,100A50,50,0,0,0,0,100Z" fill="#48348C"/></svg></g><g transform="translate(381.21,&#10;                                347.92) rotate(180, 1.6646666666666665, 1.6646666666666665)"><svg xmlns="http://www.w3.org/2000/svg" id="Layer_1" data-name="Layer 1" viewBox="0 0 100 100" width="3.329333333333333" height="3.329333333333333"><rect x="48" width="4" height="100" fill="#F700A3"/><rect x="74.215" width="4" height="100" fill="#F700A3"/><rect x="21.785" width="4" height="100" fill="#F700A3"/></svg></g><g transform="translate(381.21,&#10;                                381.21) rotate(270, 1.6646666666666665, 1.6646666666666665)"><svg xmlns="http://www.w3.org/2000/svg" id="Layer_1" data-name="Layer 1" viewBox="0 0 100 100" width="3.329333333333333" height="3.329333333333333"><path d="M100,100A50,50,0,0,0,0,100Z" fill="#48348C"/></svg></g><g transform="translate(414.50,&#10;                                347.92) rotate(270, 1.6646666666666665, 1.6646666666666665)"><svg xmlns="http://www.w3.org/2000/svg" id="Layer_1" data-name="Layer 1" viewBox="0 0 100 100" width="3.329333333333333" height="3.329333333333333"><path d="M100,100A50,50,0,0,0,0,100Z" fill="#48348C"/></svg></g><g transform="translate(447.80,&#10;                                347.92) rotate(0, 1.6646666666666665, 1.6646666666666665)"><svg xmlns="http://www.w3.org/2000/svg" id="Layer_1" data-name="Layer 1" viewBox="0 0 100 100" width="3.329333333333333" height="3.329333333333333"><circle cx="50" cy="50" r="50" fill="#0068F2"/></svg></g><g transform="translate(414.50,&#10;                                381.21) rotate(270, 1.6646666666666665, 1.6646666666666665)"><svg xmlns="http://www.w3.org/2000/svg" id="Layer_1" data-name="Layer 1" viewBox="0 0 100 100" width="3.329333333333333" height="3.329333333333333"><path d="M50,100h0A50,50,0,0,1,0,50V0H100V50A50,50,0,0,1,50,100Z" fill="#ED77E5"/></svg></g><g transform="translate(447.80,&#10;                                381.21) rotate(90, 1.6646666666666665, 1.6646666666666665)"><svg xmlns="http://www.w3.org/2000/svg" id="Layer_1" data-name="Layer 1" viewBox="0 0 100 100" width="3.329333333333333" height="3.329333333333333"><circle cx="50" cy="50" r="50" fill="#0068F2"/></svg></g><g transform="translate(481.09,&#10;                                347.92) rotate(0, 1.6646666666666665, 1.6646666666666665)"><svg xmlns="http://www.w3.org/2000/svg" id="Layer_1" data-name="Layer 1" viewBox="0 0 100 100" width="3.329333333333333" height="3.329333333333333"><path d="M100,100A50,50,0,0,0,0,100Z" fill="#48348C"/></svg></g><g transform="translate(514.38,&#10;                                347.92) rotate(180, 1.6646666666666665, 1.6646666666666665)"><svg xmlns="http://www.w3.org/2000/svg" id="Layer_1" data-name="Layer 1" viewBox="0 0 100 100" width="3.329333333333333" height="3.329333333333333"><circle cx="50" cy="50" r="50" fill="#0068F2"/></svg></g><g transform="translate(514.38,&#10;                                381.21) rotate(0, 1.6646666666666665, 1.6646666666666665)"><svg xmlns="http://www.w3.org/2000/svg" id="Layer_1" data-name="Layer 1" viewBox="0 0 100 100" width="3.329333333333333" height="3.329333333333333"><path d="M50,100h0A50,50,0,0,1,0,50V0H100V50A50,50,0,0,1,50,100Z" fill="#ED77E5"/></svg></g><g transform="translate(580.97,&#10;                                347.92) rotate(90, 1.6646666666666665, 1.6646666666666665)"><svg xmlns="http://www.w3.org/2000/svg" id="Layer_1" data-name="Layer 1" viewBox="0 0 100 100" width="3.329333333333333" height="3.329333333333333"><rect x="48" width="4" height="100" fill="#F700A3"/><rect x="74.215" width="4" height="100" fill="#F700A3"/><rect x="21.785" width="4" height="100" fill="#F700A3"/></svg></g><g transform="translate(580.97,&#10;                                381.21) rotate(180, 1.6646666666666665, 1.6646666666666665)"><svg xmlns="http://www.w3.org/2000/svg" id="Layer_1" data-name="Layer 1" viewBox="0 0 100 100" width="3.329333333333333" height="3.329333333333333"><circle cx="50" cy="50" r="50" fill="#0068F2"/></svg></g></g><g><g transform="translate(48.28,&#10;                                414.50) rotate(180, 1.6646666666666665, 1.6646666666666665)"><svg xmlns="http://www.w3.org/2000/svg" id="Layer_1" data-name="Layer 1" viewBox="0 0 100 100" width="3.329333333333333" height="3.329333333333333"><path d="M50,100h0A50,50,0,0,1,0,50V0H100V50A50,50,0,0,1,50,100Z" fill="#ED77E5"/></svg></g><g transform="translate(48.28,&#10;                                447.80) rotate(0, 1.6646666666666665, 1.6646666666666665)"><svg xmlns="http://www.w3.org/2000/svg" id="Layer_1" data-name="Layer 1" viewBox="0 0 100 100" width="3.329333333333333" height="3.329333333333333"><path d="M100,100A50,50,0,0,0,0,100Z" fill="#48348C"/></svg></g><g transform="translate(81.57,&#10;                                414.50) rotate(90, 1.6646666666666665, 1.6646666666666665)"><svg xmlns="http://www.w3.org/2000/svg" id="Layer_1" data-name="Layer 1" viewBox="0 0 100 100" width="3.329333333333333" height="3.329333333333333"><path d="M100,100A50,50,0,0,0,0,100Z" fill="#48348C"/></svg></g><g transform="translate(114.86,&#10;                                414.50) rotate(90, 1.6646666666666665, 1.6646666666666665)"><svg xmlns="http://www.w3.org/2000/svg" id="Layer_1" data-name="Layer 1" viewBox="0 0 100 100" width="3.329333333333333" height="3.329333333333333"><rect x="48" width="4" height="100" fill="#F700A3"/><rect x="74.215" width="4" height="100" fill="#F700A3"/><rect x="21.785" width="4" height="100" fill="#F700A3"/></svg></g><g transform="translate(81.57,&#10;                                447.80) rotate(0, 1.6646666666666665, 1.6646666666666665)"><svg xmlns="http://www.w3.org/2000/svg" id="Layer_1" data-name="Layer 1" viewBox="0 0 100 100" width="3.329333333333333" height="3.329333333333333"><rect x="48" width="4" height="100" fill="#F700A3"/><rect x="74.215" width="4" height="100" fill="#F700A3"/><rect x="21.785" width="4" height="100" fill="#F700A3"/></svg></g><g transform="translate(114.86,&#10;                                447.80) rotate(180, 1.6646666666666665, 1.6646666666666665)"><svg xmlns="http://www.w3.org/2000/svg" id="Layer_1" data-name="Layer 1" viewBox="0 0 100 100" width="3.329333333333333" height="3.329333333333333"><path d="M100,100A50,50,0,0,0,0,100Z" fill="#48348C"/></svg></g><g transform="translate(181.45,&#10;                                414.50) rotate(0, 1.6646666666666665, 1.6646666666666665)"><svg xmlns="http://www.w3.org/2000/svg" id="Layer_1" data-name="Layer 1" viewBox="0 0 100 100" width="3.329333333333333" height="3.329333333333333"><path d="M100,100A50,50,0,0,0,0,100Z" fill="#48348C"/></svg></g><g transform="translate(214.74,&#10;                                414.50) rotate(270, 1.6646666666666665, 1.6646666666666665)"><svg xmlns="http://www.w3.org/2000/svg" id="Layer_1" data-name="Layer 1" viewBox="0 0 100 100" width="3.329333333333333" height="3.329333333333333"><path d="M100,100A50,50,0,0,0,0,100Z" fill="#48348C"/></svg></g><g transform="translate(248.04,&#10;                                414.50) rotate(180, 1.6646666666666665, 1.6646666666666665)"><svg xmlns="http://www.w3.org/2000/svg" id="Layer_1" data-name="Layer 1" viewBox="0 0 100 100" width="3.329333333333333" height="3.329333333333333"><circle cx="50" cy="50" r="50" fill="#0068F2"/></svg></g><g transform="translate(248.04,&#10;                                447.80) rotate(180, 1.6646666666666665, 1.6646666666666665)"><svg xmlns="http://www.w3.org/2000/svg" id="Layer_1" data-name="Layer 1" viewBox="0 0 100 100" width="3.329333333333333" height="3.329333333333333"><path d="M100,100A50,50,0,0,0,0,100Z" fill="#48348C"/></svg></g><g transform="translate(281.33,&#10;                                414.50) rotate(90, 1.6646666666666665, 1.6646666666666665)"><svg xmlns="http://www.w3.org/2000/svg" id="Layer_1" data-name="Layer 1" viewBox="0 0 100 100" width="3.329333333333333" height="3.329333333333333"><path d="M100,100A50,50,0,0,0,0,100Z" fill="#48348C"/></svg></g><g transform="translate(314.62,&#10;                                414.50) rotate(180, 1.6646666666666665, 1.6646666666666665)"><svg xmlns="http://www.w3.org/2000/svg" id="Layer_1" data-name="Layer 1" viewBox="0 0 100 100" width="3.329333333333333" height="3.329333333333333"><rect x="48" width="4" height="100" fill="#F700A3"/><rect x="74.215" width="4" height="100" fill="#F700A3"/><rect x="21.785" width="4" height="100" fill="#F700A3"/></svg></g><g transform="translate(281.33,&#10;                                447.80) rotate(270, 1.6646666666666665, 1.6646666666666665)"><svg xmlns="http://www.w3.org/2000/svg" id="Layer_1" data-name="Layer 1" viewBox="0 0 100 100" width="3.329333333333333" height="3.329333333333333"><path d="M50,100h0A50,50,0,0,1,0,50V0H100V50A50,50,0,0,1,50,100Z" fill="#ED77E5"/></svg></g><g transform="translate(381.21,&#10;                                414.50) rotate(0, 1.6646666666666665, 1.6646666666666665)"><svg xmlns="http://www.w3.org/2000/svg" id="Layer_1" data-name="Layer 1" viewBox="0 0 100 100" width="3.329333333333333" height="3.329333333333333"><rect x="48" width="4" height="100" fill="#F700A3"/><rect x="74.215" width="4" height="100" fill="#F700A3"/><rect x="21.785" width="4" height="100" fill="#F700A3"/></svg></g><g transform="translate(347.92,&#10;                                447.80) rotate(90, 1.6646666666666665, 1.6646666666666665)"><svg xmlns="http://www.w3.org/2000/svg" id="Layer_1" data-name="Layer 1" viewBox="0 0 100 100" width="3.329333333333333" height="3.329333333333333"><path d="M50,100h0A50,50,0,0,1,0,50V0H100V50A50,50,0,0,1,50,100Z" fill="#ED77E5"/></svg></g><g transform="translate(381.21,&#10;                                447.80) rotate(90, 1.6646666666666665, 1.6646666666666665)"><svg xmlns="http://www.w3.org/2000/svg" id="Layer_1" data-name="Layer 1" viewBox="0 0 100 100" width="3.329333333333333" height="3.329333333333333"><circle cx="50" cy="50" r="50" fill="#0068F2"/></svg></g><g transform="translate(414.50,&#10;                                414.50) rotate(270, 1.6646666666666665, 1.6646666666666665)"><svg xmlns="http://www.w3.org/2000/svg" id="Layer_1" data-name="Layer 1" viewBox="0 0 100 100" width="3.329333333333333" height="3.329333333333333"><path d="M100,100A50,50,0,0,0,0,100Z" fill="#48348C"/></svg></g><g transform="translate(447.80,&#10;                                414.50) rotate(180, 1.6646666666666665, 1.6646666666666665)"><svg xmlns="http://www.w3.org/2000/svg" id="Layer_1" data-name="Layer 1" viewBox="0 0 100 100" width="3.329333333333333" height="3.329333333333333"><circle cx="50" cy="50" r="50" fill="#0068F2"/></svg></g><g transform="translate(447.80,&#10;                                447.80) rotate(0, 1.6646666666666665, 1.6646666666666665)"><svg xmlns="http://www.w3.org/2000/svg" id="Layer_1" data-name="Layer 1" viewBox="0 0 100 100" width="3.329333333333333" height="3.329333333333333"><circle cx="50" cy="50" r="50" fill="#0068F2"/></svg></g><g transform="translate(514.38,&#10;                                414.50) rotate(0, 1.6646666666666665, 1.6646666666666665)"><svg xmlns="http://www.w3.org/2000/svg" id="Layer_1" data-name="Layer 1" viewBox="0 0 100 100" width="3.329333333333333" height="3.329333333333333"><circle cx="50" cy="50" r="50" fill="#0068F2"/></svg></g><g transform="translate(514.38,&#10;                                447.80) rotate(0, 1.6646666666666665, 1.6646666666666665)"><svg xmlns="http://www.w3.org/2000/svg" id="Layer_1" data-name="Layer 1" viewBox="0 0 100 100" width="3.329333333333333" height="3.329333333333333"><path d="M50,100h0A50,50,0,0,1,0,50V0H100V50A50,50,0,0,1,50,100Z" fill="#ED77E5"/></svg></g><g transform="translate(580.97,&#10;                                414.50) rotate(270, 1.6646666666666665, 1.6646666666666665)"><svg xmlns="http://www.w3.org/2000/svg" id="Layer_1" data-name="Layer 1" viewBox="0 0 100 100" width="3.329333333333333" height="3.329333333333333"><circle cx="50" cy="50" r="50" fill="#0068F2"/></svg></g><g transform="translate(580.97,&#10;                                447.80) rotate(0, 1.6646666666666665, 1.6646666666666665)"><svg xmlns="http://www.w3.org/2000/svg" id="Layer_1" data-name="Layer 1" viewBox="0 0 100 100" width="3.329333333333333" height="3.329333333333333"><path d="M100,100A50,50,0,0,0,0,100Z" fill="#48348C"/></svg></g></g><g><g transform="translate(48.28,&#10;                                481.09) rotate(180, 1.6646666666666665, 1.6646666666666665)"><svg xmlns="http://www.w3.org/2000/svg" id="Layer_1" data-name="Layer 1" viewBox="0 0 100 100" width="3.329333333333333" height="3.329333333333333"><circle cx="50" cy="50" r="50" fill="#0068F2"/></svg></g><g transform="translate(48.28,&#10;                                514.38) rotate(0, 1.6646666666666665, 1.6646666666666665)"><svg xmlns="http://www.w3.org/2000/svg" id="Layer_1" data-name="Layer 1" viewBox="0 0 100 100" width="3.329333333333333" height="3.329333333333333"><circle cx="50" cy="50" r="50" fill="#0068F2"/></svg></g><g transform="translate(114.86,&#10;                                481.09) rotate(180, 1.6646666666666665, 1.6646666666666665)"><svg xmlns="http://www.w3.org/2000/svg" id="Layer_1" data-name="Layer 1" viewBox="0 0 100 100" width="3.329333333333333" height="3.329333333333333"><circle cx="50" cy="50" r="50" fill="#0068F2"/></svg></g><g transform="translate(81.57,&#10;                                514.38) rotate(270, 1.6646666666666665, 1.6646666666666665)"><svg xmlns="http://www.w3.org/2000/svg" id="Layer_1" data-name="Layer 1" viewBox="0 0 100 100" width="3.329333333333333" height="3.329333333333333"><rect x="48" width="4" height="100" fill="#F700A3"/><rect x="74.215" width="4" height="100" fill="#F700A3"/><rect x="21.785" width="4" height="100" fill="#F700A3"/></svg></g><g transform="translate(114.86,&#10;                                514.38) rotate(180, 1.6646666666666665, 1.6646666666666665)"><svg xmlns="http://www.w3.org/2000/svg" id="Layer_1" data-name="Layer 1" viewBox="0 0 100 100" width="3.329333333333333" height="3.329333333333333"><circle cx="50" cy="50" r="50" fill="#0068F2"/></svg></g><g transform="translate(148.16,&#10;                                481.09) rotate(270, 1.6646666666666665, 1.6646666666666665)"><svg xmlns="http://www.w3.org/2000/svg" id="Layer_1" data-name="Layer 1" viewBox="0 0 100 100" width="3.329333333333333" height="3.329333333333333"><path d="M100,100A50,50,0,0,0,0,100Z" fill="#48348C"/></svg></g><g transform="translate(181.45,&#10;                                481.09) rotate(270, 1.6646666666666665, 1.6646666666666665)"><svg xmlns="http://www.w3.org/2000/svg" id="Layer_1" data-name="Layer 1" viewBox="0 0 100 100" width="3.329333333333333" height="3.329333333333333"><rect x="48" width="4" height="100" fill="#F700A3"/><rect x="74.215" width="4" height="100" fill="#F700A3"/><rect x="21.785" width="4" height="100" fill="#F700A3"/></svg></g><g transform="translate(181.45,&#10;                                514.38) rotate(0, 1.6646666666666665, 1.6646666666666665)"><svg xmlns="http://www.w3.org/2000/svg" id="Layer_1" data-name="Layer 1" viewBox="0 0 100 100" width="3.329333333333333" height="3.329333333333333"><path d="M100,100A50,50,0,0,0,0,100Z" fill="#48348C"/></svg></g><g transform="translate(214.74,&#10;                                481.09) rotate(180, 1.6646666666666665, 1.6646666666666665)"><svg xmlns="http://www.w3.org/2000/svg" id="Layer_1" data-name="Layer 1" viewBox="0 0 100 100" width="3.329333333333333" height="3.329333333333333"><path d="M100,100A50,50,0,0,0,0,100Z" fill="#48348C"/></svg></g><g transform="translate(248.04,&#10;                                481.09) rotate(270, 1.6646666666666665, 1.6646666666666665)"><svg xmlns="http://www.w3.org/2000/svg" id="Layer_1" data-name="Layer 1" viewBox="0 0 100 100" width="3.329333333333333" height="3.329333333333333"><circle cx="50" cy="50" r="50" fill="#0068F2"/></svg></g><g transform="translate(214.74,&#10;                                514.38) rotate(180, 1.6646666666666665, 1.6646666666666665)"><svg xmlns="http://www.w3.org/2000/svg" id="Layer_1" data-name="Layer 1" viewBox="0 0 100 100" width="3.329333333333333" height="3.329333333333333"><path d="M50,100h0A50,50,0,0,1,0,50V0H100V50A50,50,0,0,1,50,100Z" fill="#ED77E5"/></svg></g><g transform="translate(248.04,&#10;                                514.38) rotate(0, 1.6646666666666665, 1.6646666666666665)"><svg xmlns="http://www.w3.org/2000/svg" id="Layer_1" data-name="Layer 1" viewBox="0 0 100 100" width="3.329333333333333" height="3.329333333333333"><path d="M50,100h0A50,50,0,0,1,0,50V0H100V50A50,50,0,0,1,50,100Z" fill="#ED77E5"/></svg></g><g transform="translate(281.33,&#10;                                481.09) rotate(180, 1.6646666666666665, 1.6646666666666665)"><svg xmlns="http://www.w3.org/2000/svg" id="Layer_1" data-name="Layer 1" viewBox="0 0 100 100" width="3.329333333333333" height="3.329333333333333"><path d="M100,100A50,50,0,0,0,0,100Z" fill="#48348C"/></svg></g><g transform="translate(314.62,&#10;                                481.09) rotate(90, 1.6646666666666665, 1.6646666666666665)"><svg xmlns="http://www.w3.org/2000/svg" id="Layer_1" data-name="Layer 1" viewBox="0 0 100 100" width="3.329333333333333" height="3.329333333333333"><circle cx="50" cy="50" r="50" fill="#0068F2"/></svg></g><g transform="translate(314.62,&#10;                                514.38) rotate(90, 1.6646666666666665, 1.6646666666666665)"><svg xmlns="http://www.w3.org/2000/svg" id="Layer_1" data-name="Layer 1" viewBox="0 0 100 100" width="3.329333333333333" height="3.329333333333333"><circle cx="50" cy="50" r="50" fill="#0068F2"/></svg></g><g transform="translate(381.21,&#10;                                481.09) rotate(180, 1.6646666666666665, 1.6646666666666665)"><svg xmlns="http://www.w3.org/2000/svg" id="Layer_1" data-name="Layer 1" viewBox="0 0 100 100" width="3.329333333333333" height="3.329333333333333"><circle cx="50" cy="50" r="50" fill="#0068F2"/></svg></g><g transform="translate(347.92,&#10;                                514.38) rotate(270, 1.6646666666666665, 1.6646666666666665)"><svg xmlns="http://www.w3.org/2000/svg" id="Layer_1" data-name="Layer 1" viewBox="0 0 100 100" width="3.329333333333333" height="3.329333333333333"><circle cx="50" cy="50" r="50" fill="#0068F2"/></svg></g><g transform="translate(381.21,&#10;                                514.38) rotate(270, 1.6646666666666665, 1.6646666666666665)"><svg xmlns="http://www.w3.org/2000/svg" id="Layer_1" data-name="Layer 1" viewBox="0 0 100 100" width="3.329333333333333" height="3.329333333333333"><circle cx="50" cy="50" r="50" fill="#0068F2"/></svg></g><g transform="translate(447.80,&#10;                                481.09) rotate(90, 1.6646666666666665, 1.6646666666666665)"><svg xmlns="http://www.w3.org/2000/svg" id="Layer_1" data-name="Layer 1" viewBox="0 0 100 100" width="3.329333333333333" height="3.329333333333333"><path d="M50,100h0A50,50,0,0,1,0,50V0H100V50A50,50,0,0,1,50,100Z" fill="#ED77E5"/></svg></g><g transform="translate(414.50,&#10;                                514.38) rotate(90, 1.6646666666666665, 1.6646666666666665)"><svg xmlns="http://www.w3.org/2000/svg" id="Layer_1" data-name="Layer 1" viewBox="0 0 100 100" width="3.329333333333333" height="3.329333333333333"><path d="M50,100h0A50,50,0,0,1,0,50V0H100V50A50,50,0,0,1,50,100Z" fill="#ED77E5"/></svg></g><g transform="translate(447.80,&#10;                                514.38) rotate(0, 1.6646666666666665, 1.6646666666666665)"><svg xmlns="http://www.w3.org/2000/svg" id="Layer_1" data-name="Layer 1" viewBox="0 0 100 100" width="3.329333333333333" height="3.329333333333333"><path d="M100,100A50,50,0,0,0,0,100Z" fill="#48348C"/></svg></g><g transform="translate(514.38,&#10;                                481.09) rotate(90, 1.6646666666666665, 1.6646666666666665)"><svg xmlns="http://www.w3.org/2000/svg" id="Layer_1" data-name="Layer 1" viewBox="0 0 100 100" width="3.329333333333333" height="3.329333333333333"><rect x="48" width="4" height="100" fill="#F700A3"/><rect x="74.215" width="4" height="100" fill="#F700A3"/><rect x="21.785" width="4" height="100" fill="#F700A3"/></svg></g><g transform="translate(514.38,&#10;                                514.38) rotate(90, 1.6646666666666665, 1.6646666666666665)"><svg xmlns="http://www.w3.org/2000/svg" id="Layer_1" data-name="Layer 1" viewBox="0 0 100 100" width="3.329333333333333" height="3.329333333333333"><circle cx="50" cy="50" r="50" fill="#0068F2"/></svg></g><g transform="translate(547.68,&#10;                                481.09) rotate(270, 1.6646666666666665, 1.6646666666666665)"><svg xmlns="http://www.w3.org/2000/svg" id="Layer_1" data-name="Layer 1" viewBox="0 0 100 100" width="3.329333333333333" height="3.329333333333333"><path d="M100,100A50,50,0,0,0,0,100Z" fill="#48348C"/></svg></g><g transform="translate(580.97,&#10;                                481.09) rotate(0, 1.6646666666666665, 1.6646666666666665)"><svg xmlns="http://www.w3.org/2000/svg" id="Layer_1" data-name="Layer 1" viewBox="0 0 100 100" width="3.329333333333333" height="3.329333333333333"><circle cx="50" cy="50" r="50" fill="#0068F2"/></svg></g><g transform="translate(580.97,&#10;                                514.38) rotate(0, 1.6646666666666665, 1.6646666666666665)"><svg xmlns="http://www.w3.org/2000/svg" id="Layer_1" data-name="Layer 1" viewBox="0 0 100 100" width="3.329333333333333" height="3.329333333333333"><path d="M100,100A50,50,0,0,0,0,100Z" fill="#48348C"/></svg></g></g><g><g transform="translate(48.28,&#10;                                547.68) rotate(0, 1.6646666666666665, 1.6646666666666665)"><svg xmlns="http://www.w3.org/2000/svg" id="Layer_1" data-name="Layer 1" viewBox="0 0 100 100" width="3.329333333333333" height="3.329333333333333"><path d="M100,100A50,50,0,0,0,0,100Z" fill="#48348C"/></svg></g><g transform="translate(14.98,&#10;                                580.97) rotate(90, 1.6646666666666665, 1.6646666666666665)"><svg xmlns="http://www.w3.org/2000/svg" id="Layer_1" data-name="Layer 1" viewBox="0 0 100 100" width="3.329333333333333" height="3.329333333333333"><path d="M50,100h0A50,50,0,0,1,0,50V0H100V50A50,50,0,0,1,50,100Z" fill="#ED77E5"/></svg></g><g transform="translate(48.28,&#10;                                580.97) rotate(270, 1.6646666666666665, 1.6646666666666665)"><svg xmlns="http://www.w3.org/2000/svg" id="Layer_1" data-name="Layer 1" viewBox="0 0 100 100" width="3.329333333333333" height="3.329333333333333"><path d="M100,100A50,50,0,0,0,0,100Z" fill="#48348C"/></svg></g><g transform="translate(114.86,&#10;                                547.68) rotate(90, 1.6646666666666665, 1.6646666666666665)"><svg xmlns="http://www.w3.org/2000/svg" id="Layer_1" data-name="Layer 1" viewBox="0 0 100 100" width="3.329333333333333" height="3.329333333333333"><circle cx="50" cy="50" r="50" fill="#0068F2"/></svg></g><g transform="translate(114.86,&#10;                                580.97) rotate(180, 1.6646666666666665, 1.6646666666666665)"><svg xmlns="http://www.w3.org/2000/svg" id="Layer_1" data-name="Layer 1" viewBox="0 0 100 100" width="3.329333333333333" height="3.329333333333333"><path d="M100,100A50,50,0,0,0,0,100Z" fill="#48348C"/></svg></g><g transform="translate(148.16,&#10;                                547.68) rotate(270, 1.6646666666666665, 1.6646666666666665)"><svg xmlns="http://www.w3.org/2000/svg" id="Layer_1" data-name="Layer 1" viewBox="0 0 100 100" width="3.329333333333333" height="3.329333333333333"><path d="M100,100A50,50,0,0,0,0,100Z" fill="#48348C"/></svg></g><g transform="translate(181.45,&#10;                                547.68) rotate(0, 1.6646666666666665, 1.6646666666666665)"><svg xmlns="http://www.w3.org/2000/svg" id="Layer_1" data-name="Layer 1" viewBox="0 0 100 100" width="3.329333333333333" height="3.329333333333333"><path d="M50,100h0A50,50,0,0,1,0,50V0H100V50A50,50,0,0,1,50,100Z" fill="#ED77E5"/></svg></g><g transform="translate(181.45,&#10;                                580.97) rotate(180, 1.6646666666666665, 1.6646666666666665)"><svg xmlns="http://www.w3.org/2000/svg" id="Layer_1" data-name="Layer 1" viewBox="0 0 100 100" width="3.329333333333333" height="3.329333333333333"><path d="M100,100A50,50,0,0,0,0,100Z" fill="#48348C"/></svg></g><g transform="translate(214.74,&#10;                                547.68) rotate(180, 1.6646666666666665, 1.6646666666666665)"><svg xmlns="http://www.w3.org/2000/svg" id="Layer_1" data-name="Layer 1" viewBox="0 0 100 100" width="3.329333333333333" height="3.329333333333333"><path d="M100,100A50,50,0,0,0,0,100Z" fill="#48348C"/></svg></g><g transform="translate(248.04,&#10;                                547.68) rotate(270, 1.6646666666666665, 1.6646666666666665)"><svg xmlns="http://www.w3.org/2000/svg" id="Layer_1" data-name="Layer 1" viewBox="0 0 100 100" width="3.329333333333333" height="3.329333333333333"><rect x="48" width="4" height="100" fill="#F700A3"/><rect x="74.215" width="4" height="100" fill="#F700A3"/><rect x="21.785" width="4" height="100" fill="#F700A3"/></svg></g><g transform="translate(214.74,&#10;                                580.97) rotate(0, 1.6646666666666665, 1.6646666666666665)"><svg xmlns="http://www.w3.org/2000/svg" id="Layer_1" data-name="Layer 1" viewBox="0 0 100 100" width="3.329333333333333" height="3.329333333333333"><circle cx="50" cy="50" r="50" fill="#0068F2"/></svg></g><g transform="translate(248.04,&#10;                                580.97) rotate(270, 1.6646666666666665, 1.6646666666666665)"><svg xmlns="http://www.w3.org/2000/svg" id="Layer_1" data-name="Layer 1" viewBox="0 0 100 100" width="3.329333333333333" height="3.329333333333333"><circle cx="50" cy="50" r="50" fill="#0068F2"/></svg></g><g transform="translate(281.33,&#10;                                547.68) rotate(90, 1.6646666666666665, 1.6646666666666665)"><svg xmlns="http://www.w3.org/2000/svg" id="Layer_1" data-name="Layer 1" viewBox="0 0 100 100" width="3.329333333333333" height="3.329333333333333"><path d="M100,100A50,50,0,0,0,0,100Z" fill="#48348C"/></svg></g><g transform="translate(314.62,&#10;                                547.68) rotate(180, 1.6646666666666665, 1.6646666666666665)"><svg xmlns="http://www.w3.org/2000/svg" id="Layer_1" data-name="Layer 1" viewBox="0 0 100 100" width="3.329333333333333" height="3.329333333333333"><rect x="48" width="4" height="100" fill="#F700A3"/><rect x="74.215" width="4" height="100" fill="#F700A3"/><rect x="21.785" width="4" height="100" fill="#F700A3"/></svg></g><g transform="translate(281.33,&#10;                                580.97) rotate(0, 1.6646666666666665, 1.6646666666666665)"><svg xmlns="http://www.w3.org/2000/svg" id="Layer_1" data-name="Layer 1" viewBox="0 0 100 100" width="3.329333333333333" height="3.329333333333333"><circle cx="50" cy="50" r="50" fill="#0068F2"/></svg></g><g transform="translate(314.62,&#10;                                580.97) rotate(90, 1.6646666666666665, 1.6646666666666665)"><svg xmlns="http://www.w3.org/2000/svg" id="Layer_1" data-name="Layer 1" viewBox="0 0 100 100" width="3.329333333333333" height="3.329333333333333"><path d="M100,100A50,50,0,0,0,0,100Z" fill="#48348C"/></svg></g><g transform="translate(381.21,&#10;                                547.68) rotate(0, 1.6646666666666665, 1.6646666666666665)"><svg xmlns="http://www.w3.org/2000/svg" id="Layer_1" data-name="Layer 1" viewBox="0 0 100 100" width="3.329333333333333" height="3.329333333333333"><path d="M100,100A50,50,0,0,0,0,100Z" fill="#48348C"/></svg></g><g transform="translate(381.21,&#10;                                580.97) rotate(0, 1.6646666666666665, 1.6646666666666665)"><svg xmlns="http://www.w3.org/2000/svg" id="Layer_1" data-name="Layer 1" viewBox="0 0 100 100" width="3.329333333333333" height="3.329333333333333"><path d="M100,100A50,50,0,0,0,0,100Z" fill="#48348C"/></svg></g><g transform="translate(447.80,&#10;                                547.68) rotate(0, 1.6646666666666665, 1.6646666666666665)"><svg xmlns="http://www.w3.org/2000/svg" id="Layer_1" data-name="Layer 1" viewBox="0 0 100 100" width="3.329333333333333" height="3.329333333333333"><circle cx="50" cy="50" r="50" fill="#0068F2"/></svg></g><g transform="translate(514.38,&#10;                                547.68) rotate(90, 1.6646666666666665, 1.6646666666666665)"><svg xmlns="http://www.w3.org/2000/svg" id="Layer_1" data-name="Layer 1" viewBox="0 0 100 100" width="3.329333333333333" height="3.329333333333333"><rect x="48" width="4" height="100" fill="#F700A3"/><rect x="74.215" width="4" height="100" fill="#F700A3"/><rect x="21.785" width="4" height="100" fill="#F700A3"/></svg></g><g transform="translate(514.38,&#10;                                580.97) rotate(90, 1.6646666666666665, 1.6646666666666665)"><svg xmlns="http://www.w3.org/2000/svg" id="Layer_1" data-name="Layer 1" viewBox="0 0 100 100" width="3.329333333333333" height="3.329333333333333"><path d="M50,100h0A50,50,0,0,1,0,50V0H100V50A50,50,0,0,1,50,100Z" fill="#ED77E5"/></svg></g><g transform="translate(580.97,&#10;                                547.68) rotate(90, 1.6646666666666665, 1.6646666666666665)"><svg xmlns="http://www.w3.org/2000/svg" id="Layer_1" data-name="Layer 1" viewBox="0 0 100 100" width="3.329333333333333" height="3.329333333333333"><path d="M100,100A50,50,0,0,0,0,100Z" fill="#48348C"/></svg></g><g transform="translate(580.97,&#10;                                580.97) rotate(90, 1.6646666666666665, 1.6646666666666665)"><svg xmlns="http://www.w3.org/2000/svg" id="Layer_1" data-name="Layer 1" viewBox="0 0 100 100" width="3.329333333333333" height="3.329333333333333"><path d="M100,100A50,50,0,0,0,0,100Z" fill="#48348C"/></svg></g></g></svg>