<svg width="824" height="587" viewBox="0 0 824 587" fill="none" xmlns="http://www.w3.org/2000/svg">
<g clip-path="url(#clip0_102_30)">
<path d="M158.519 587C246.066 587 317.037 583.058 317.037 578.195C317.037 573.332 246.066 569.39 158.519 569.39C70.9712 569.39 0 573.332 0 578.195C0 583.058 70.9712 587 158.519 587Z" fill="#E6E6E6"/>
<path d="M618.945 355.941L592.662 359.651L591.323 359.839L556.34 364.776L396.659 387.322C389.83 382.182 383.386 376.896 377.403 371.485L560.139 359.727L591.746 357.691L593.072 357.607L618.945 355.941Z" fill="#E6E6E6"/>
<path d="M502.998 215.772L364.162 235.375C368.191 231.644 372.397 227.818 376.781 223.896L502.998 215.772Z" fill="#E6E6E6"/>
<path d="M824 339.232C821.38 343.939 818.561 348.546 815.544 353.054L694.92 336.024L628.554 326.652L693.837 330.857L824 339.232Z" fill="#E6E6E6"/>
<path d="M767.339 404.442C722.94 439.058 663.614 460.195 598.446 460.195C545.142 460.195 483.876 440.321 433.41 411.429C437.401 400.167 442.961 391.039 450.693 386.415C450.885 386.297 451.084 386.178 451.282 386.073C454.585 384.226 458.23 383.222 461.942 383.138C507.424 381.743 502.3 437.531 559.312 360.822C594.769 313.116 634.935 296.7 662.391 302.007C662.897 302.105 663.396 302.209 663.896 302.321C679.808 305.919 691.192 317.007 694.478 333.625C703.446 378.953 677.182 415.216 725.227 404.058C739.128 400.909 753.488 401.04 767.339 404.442Z" fill="#6C63FF"/>
<path d="M632.648 458.345C610.304 444.786 596.394 426.273 591.305 403.322C587.525 386.282 588.611 367.107 594.532 346.329C598.921 331.01 605.501 316.54 614.031 303.453C659.281 233.727 663.366 188.293 658.824 162.457C653.844 134.128 637.664 122.363 637.501 122.247L638.199 121.078C638.366 121.196 654.972 133.235 660.072 162.138C663.012 178.801 661.629 197.802 655.961 218.611C648.907 244.509 635.152 273.325 615.078 304.258C606.626 317.225 600.105 331.563 595.756 346.742C586.045 380.82 584.672 427.633 633.272 457.128L632.648 458.345Z" fill="#3F3D56"/>
<path d="M593.121 326.446C575.505 315.757 575.996 298.816 579.509 286.487C581.067 281.049 583.403 275.913 586.43 271.267C602.283 246.84 603.715 230.972 602.126 221.961C600.399 212.177 594.861 208.16 594.805 208.121L595.503 206.951C595.749 207.125 601.555 211.337 603.384 221.699C605.764 235.191 600.413 252.139 587.477 272.072C584.527 276.598 582.251 281.602 580.733 286.9C577.36 298.737 576.879 314.994 593.744 325.229L593.121 326.446Z" fill="#3F3D56"/>
<path d="M672.373 177.213L671.749 175.995C688.614 165.76 688.134 149.502 684.761 137.666C683.243 132.368 680.967 127.364 678.017 122.838C665.081 102.905 659.729 85.957 662.11 72.4645C663.938 62.1025 669.744 57.8912 669.99 57.7172L670.69 58.8858C670.634 58.926 665.067 62.9957 663.358 72.7825C661.786 81.7879 663.234 97.6425 679.063 122.033C682.091 126.679 684.426 131.815 685.984 137.253C689.498 149.582 689.988 166.523 672.373 177.213Z" fill="#3F3D56"/>
<path d="M709.983 107.824C707.199 112.472 702.833 115.725 697.845 116.869C692.858 118.012 687.657 116.952 683.388 113.922C679.118 110.891 676.13 106.139 675.079 100.709C674.029 95.2798 675.003 89.6185 677.786 84.9707L677.792 84.9617C683.591 75.2848 712.789 64.8541 712.789 64.8541C712.789 64.8541 715.782 98.1471 709.983 107.824Z" fill="#6C63FF"/>
<path d="M702.936 42.9699C700.152 47.6176 695.786 50.8712 690.799 52.0148C685.811 53.1583 680.611 52.0983 676.341 49.0677C672.072 46.0372 669.083 41.2845 668.033 35.8551C666.982 30.4257 667.956 24.7644 670.74 20.1167L670.745 20.1076C676.545 10.4307 705.742 1.52588e-05 705.742 1.52588e-05C705.742 1.52588e-05 708.735 33.293 702.936 42.9699Z" fill="#6C63FF"/>
<path d="M702.024 239.287C700.794 238.973 671.782 231.63 662.109 236.644C658.038 238.754 654.747 242.31 652.779 246.727C650.811 251.143 650.282 256.157 651.28 260.945C652.277 265.732 654.741 270.007 658.267 273.067C661.793 276.127 666.171 277.789 670.68 277.781C672.124 277.782 673.563 277.609 674.972 277.265C676.427 276.911 677.841 276.38 679.187 275.682C688.86 270.661 701.903 241.512 702.453 240.27L702.806 239.489L702.024 239.287ZM678.636 274.42C676.434 275.562 674.046 276.22 671.61 276.358C669.174 276.496 666.737 276.109 664.438 275.222C662.139 274.334 660.023 272.962 658.211 271.184C656.399 269.406 654.926 267.257 653.877 264.859C652.828 262.462 652.223 259.863 652.097 257.211C651.97 254.559 652.325 251.905 653.141 249.403C653.956 246.9 655.217 244.596 656.85 242.624C658.483 240.651 660.457 239.048 662.66 237.906C664.915 236.735 668.361 236.295 672.294 236.295C683.056 236.295 697.444 239.608 700.942 240.452C698.757 245.222 687.054 270.054 678.636 274.42V274.42Z" fill="#3F3D56"/>
<path d="M614.716 120.815C609.768 120.823 604.998 118.813 601.345 115.181C593.427 107.321 588.727 75.3016 588.53 73.9423L588.406 73.0829L589.204 73.138C590.465 73.2255 620.187 75.3728 628.105 83.2323C631.067 86.1695 633.143 90.0136 634.06 94.2592C634.977 98.5048 634.693 102.953 633.244 107.02C631.796 111.086 629.25 114.58 625.943 117.042C622.636 119.504 618.722 120.819 614.716 120.815H614.716ZM589.928 74.5933C590.748 79.8439 595.32 107.313 602.208 114.151C605.849 117.762 610.659 119.651 615.579 119.403C620.5 119.155 625.129 116.79 628.447 112.828C631.766 108.865 633.504 103.63 633.278 98.2734C633.052 92.9168 630.881 87.8771 627.242 84.2627V84.2627C620.354 77.426 594.807 74.9985 589.928 74.5933V74.5933Z" fill="#3F3D56"/>
<path d="M587.957 170.917C589.822 172.768 591.333 175.001 592.406 177.488C593.478 179.975 594.089 182.668 594.206 185.412C594.322 188.157 593.941 190.899 593.083 193.483C592.226 196.067 590.909 198.442 589.209 200.472C587.509 202.502 585.457 204.148 583.173 205.315C580.888 206.482 578.415 207.148 575.894 207.275C573.373 207.401 570.853 206.986 568.48 206.053C566.106 205.119 563.925 203.686 562.06 201.835C554.217 194.05 549.447 161.004 549.447 161.004C549.447 161.004 580.114 163.132 587.957 170.917Z" fill="#6C63FF"/>
<path d="M646.856 171.685C646.325 169.025 644.976 166.641 643.032 164.928C641.088 163.215 638.666 162.275 636.165 162.264C635.376 162.267 634.59 162.361 633.82 162.543C628.093 163.896 617.914 177.473 617.485 178.045L616.979 178.722L617.696 179.112C618.26 179.419 630.521 186.03 636.94 186.03C637.452 186.037 637.963 185.983 638.464 185.87C641.304 185.199 643.783 183.328 645.357 180.668C646.93 178.008 647.47 174.778 646.856 171.685H646.856ZM644.281 179.914C643.597 181.082 642.706 182.09 641.66 182.879C640.614 183.668 639.434 184.223 638.189 184.51C633.589 185.598 622.02 179.817 618.997 178.247C621.149 175.458 629.49 164.991 634.096 163.903C635.967 163.462 637.917 163.635 639.699 164.4C641.48 165.166 643.013 166.489 644.103 168.203C645.193 169.917 645.792 171.945 645.824 174.029C645.856 176.114 645.319 178.162 644.281 179.914V179.914Z" fill="#3F3D56"/>
<path d="M149.767 344.178L183.247 307.731C184.337 306.544 185.693 305.687 187.18 305.245C188.667 304.803 190.234 304.79 191.727 305.209C193.22 305.628 194.587 306.463 195.693 307.632C196.799 308.801 197.605 310.264 198.033 311.877V311.877C198.473 313.535 198.497 315.291 198.102 316.962C197.706 318.634 196.906 320.159 195.785 321.38L174.41 344.648L204.242 370.534L204.227 370.559C204.376 370.551 204.523 370.534 204.674 370.534C206.468 370.534 208.222 371.112 209.715 372.196C211.207 373.28 212.371 374.82 213.06 376.624C213.749 378.427 213.931 380.412 213.584 382.328C213.237 384.245 212.377 386.006 211.111 387.39C209.846 388.774 208.232 389.719 206.473 390.106C204.715 390.493 202.89 390.303 201.231 389.562C199.571 388.821 198.15 387.561 197.147 385.941C196.145 384.322 195.605 382.415 195.597 380.462L149.767 344.178Z" fill="#A0616A"/>
<path d="M248.641 569.289L258.572 565.253L248.998 521.632L234.34 527.588L248.641 569.289Z" fill="#A0616A"/>
<path d="M281.169 567.508L249.956 580.193L245.454 567.065L265.034 559.107C268.119 557.854 271.536 557.985 274.532 559.473C277.528 560.962 279.858 563.685 281.009 567.043L281.169 567.508V567.508Z" fill="#2F2E41"/>
<path d="M159.294 565.821L169.895 565.82L174.939 521.307L159.293 521.308L159.294 565.821Z" fill="#A0616A"/>
<path d="M190.34 576.535L157.023 576.537L157.023 562.523L177.923 562.522C181.216 562.522 184.375 563.946 186.703 566.481C189.032 569.016 190.34 572.454 190.34 576.039L190.34 576.535V576.535Z" fill="#2F2E41"/>
<path d="M186.083 357.356C186.083 357.356 212.024 352.65 220.671 363.945L257.42 548.911L236.668 551.735C236.668 551.735 229.75 455.722 195.163 430.307C195.163 430.307 170.087 515.024 174.41 553.618L156.252 551.735C156.252 551.735 150.631 389.36 186.083 357.356Z" fill="#2F2E41"/>
<path d="M239.984 424.118L242.959 419.867L242.471 419.462L244.478 416.596C244.947 415.926 245.29 415.161 245.488 414.346C245.686 413.532 245.735 412.682 245.631 411.847C245.527 411.012 245.274 410.207 244.884 409.479C244.495 408.75 243.978 408.112 243.362 407.601L243.362 407.601L236.144 401.613C235.528 401.102 234.826 400.729 234.077 400.513C233.329 400.298 232.549 400.245 231.781 400.358C231.014 400.47 230.275 400.747 229.606 401.17C228.936 401.594 228.35 402.157 227.881 402.828L227.881 402.828L210.849 427.159C210.38 427.829 210.036 428.593 209.838 429.408C209.64 430.223 209.592 431.072 209.696 431.907C209.799 432.743 210.053 433.548 210.442 434.276C210.832 435.004 211.349 435.642 211.965 436.153L211.965 436.153L219.183 442.141C220.426 443.173 221.996 443.625 223.545 443.397C225.095 443.169 226.498 442.281 227.445 440.927L227.445 440.927L235.404 429.558L235.892 429.963L238.868 425.712L238.379 425.307L239.495 423.713L239.984 424.118Z" fill="#E6E6E6"/>
<path d="M234.173 415.919C235.868 415.919 237.242 414.423 237.242 412.578C237.242 410.733 235.868 409.238 234.173 409.238C232.478 409.238 231.104 410.733 231.104 412.578C231.104 414.423 232.478 415.919 234.173 415.919Z" fill="white"/>
<path d="M192.363 284.003C203.677 284.003 212.849 274.019 212.849 261.703C212.849 249.386 203.677 239.402 192.363 239.402C181.049 239.402 171.878 249.386 171.878 261.703C171.878 274.019 181.049 284.003 192.363 284.003Z" fill="#A0616A"/>
<path d="M172.249 303.702C172.249 303.702 191.272 279.228 206.836 298.995C216.85 311.714 222.147 328.042 221.69 344.786L221.103 366.298L185.219 360.18L172.249 303.702Z" fill="#CCCCCC"/>
<path d="M199.435 297.418C198.083 297.437 196.751 297.777 195.532 298.414C194.313 299.05 193.235 299.969 192.375 301.105C191.515 302.24 190.893 303.567 190.551 304.991C190.21 306.416 190.157 307.904 190.398 309.352L210.031 427.636L209.922 427.798C209.139 428.96 208.604 430.298 208.356 431.713C208.107 433.129 208.153 434.587 208.488 435.981C208.823 437.375 209.439 438.671 210.293 439.773C211.146 440.875 212.214 441.755 213.419 442.351C215.38 443.293 217.585 443.445 219.639 442.779C221.693 442.114 223.463 440.675 224.632 438.72C225.793 436.748 226.255 434.384 225.933 432.069C225.61 429.754 224.524 427.646 222.878 426.138L222.75 426.021L208.792 306.275C208.508 303.828 207.414 301.577 205.714 299.946C204.014 298.316 201.825 297.416 199.56 297.417C199.518 297.417 199.477 297.417 199.435 297.418Z" fill="#A0616A"/>
<path d="M195.684 265.561L204.485 254.273C206.753 251.364 209.126 248.196 209.447 244.396C209.798 240.231 207.471 236.183 204.29 233.838C201.108 231.493 197.201 230.61 193.371 230.287C186.266 229.686 178.79 230.964 172.949 235.409C167.109 239.853 163.287 247.878 164.712 255.479C165.833 261.464 169.965 267.197 168.359 273.05C166.602 279.454 159.395 281.418 153.512 283.328C143.636 286.533 134.206 292.844 129.031 302.545C123.855 312.246 123.878 325.622 130.777 333.956C135.244 339.352 141.982 342.081 148.644 342.491C155.307 342.902 161.938 341.194 168.256 338.857C174.075 336.706 179.831 333.938 184.412 329.479C188.994 325.02 192.294 318.638 192.151 311.95C192.015 305.576 188.878 299.77 187.59 293.551C186.574 288.343 186.84 282.935 188.363 277.875C189.886 272.816 192.61 268.284 196.26 264.741" fill="#2F2E41"/>
<path d="M181.698 228.703L187.242 227.519C187.701 227.421 188.172 227.422 188.63 227.523C189.088 227.623 189.523 227.821 189.91 228.104C190.298 228.388 190.63 228.752 190.889 229.175C191.147 229.599 191.327 230.073 191.416 230.572L199.083 258.577L186.56 261.252L178.893 233.247C178.712 232.24 178.905 231.195 179.431 230.343C179.957 229.491 180.773 228.901 181.698 228.703Z" fill="#6C63FF"/>
<path d="M193.897 274.467C199.466 274.467 203.981 269.552 203.981 263.49C203.981 257.427 199.466 252.513 193.897 252.513C188.328 252.513 183.814 257.427 183.814 263.49C183.814 269.552 188.328 274.467 193.897 274.467Z" fill="white"/>
<path d="M193.897 269.588C196.991 269.588 199.499 266.858 199.499 263.49C199.499 260.122 196.991 257.391 193.897 257.391C190.803 257.391 188.295 260.122 188.295 263.49C188.295 266.858 190.803 269.588 193.897 269.588Z" fill="#6C63FF"/>
<path d="M755.213 344.113C893.753 595.986 377.432 508.378 377.432 508.378C-239.773 682.101 132.008 434.246 132.008 226.336C-25.0629 -91.2229 314.572 133.555 715.377 34C927.607 34 677.469 148.783 755.213 344.113Z" fill="#9B67F2" fill-opacity="0.1"/>
</g>
<defs>
<clipPath id="clip0_102_30">
<rect width="824" height="587" fill="white"/>
</clipPath>
</defs>
</svg>
